<svg  xmlns="http://www.w3.org/2000/svg"  viewBox="0 0 1702 18"><defs><clipPath id="9bc89eee-f028-4683-b76b-0f34ef337979"><polygon points="-14 37.22 1705.95 37.22 1705.95 17.57 -8.56 17.57 -14 37.22" style="fill:none"/></clipPath><clipPath id="5105bcf0-3782-4cc4-b744-dfd0bc199b01"><rect x="521.44" y="-32.43" width="644.51" height="19.65" style="fill:none"/></clipPath></defs><title>footer-vague-large</title><g style="clip-path:url(#9bc89eee-f028-4683-b76b-0f34ef337979)"><path d="M21.87,7.84H1711.58v3c-.49,0-1,.1-1.47.1L27.4,10.91H21.87Z" style="fill:#009fe3;fill-rule:evenodd"/><path d="M21.87,7.84H1711.58v3c-.49,0-1,.1-1.47.1L27.4,10.91H21.87Z" style="fill:#00ace9;fill-rule:evenodd"/></g><path d="M-8.11,11.13c1.21.08,2.42.21,3.63.21,24,0,577.94,0,601.91,0,3.53,0,7.05-.39,10.59-.58,2.92-.16,5.85-.38,8.78-.4a16.18,16.18,0,0,0,9-2.53c1.19-.77,2.52-1.43,3.76-2.16a3.42,3.42,0,0,1,3.38,0,4.36,4.36,0,0,1,2.25,2.06c.52,1.1,1.1,2.18,1.7,3.37.89.1,1.7.22,2.52.28s1.47,0,2.2,0q82.92,0,165.82.06A20.6,20.6,0,0,0,819.7,8a22.87,22.87,0,0,1,7.4-3.41,11.3,11.3,0,0,1,7.72.66c1.56.71,3,1.54,4.51,2.31a48.11,48.11,0,0,1,4.45,2.38,10.18,10.18,0,0,0,5.74,1.41c3.67,0,7.34,0,11,0a43.33,43.33,0,0,1,8.67.83c6,1.17,12.09,2.18,18.19,3.09a50.09,50.09,0,0,0,7.67.42c5.49,0,11-.14,16.48-.27a13.74,13.74,0,0,0,2.85-.44q8.91-2,17.81-4.11a32.34,32.34,0,0,0,6.66-2.21,16.45,16.45,0,0,1,3.65-1.2,8.72,8.72,0,0,1,5.94.71c1.2.63,2.42,1.23,3.64,1.84a11,11,0,0,0,4.78,1.2c1.83,0,3.67.14,5.5.14,66.4,0,741.87-.13,743.2-.21V9c-1.34,0-2.68.1-4,.1H962.39c-1.11,0-2.21-.05-3.31,0a11.73,11.73,0,0,1-7-1.92c-1-.65-2.08-1.26-3.15-1.86A9.27,9.27,0,0,0,941,4.74a1.83,1.83,0,0,0-.33.11c-3.51,1.73-7.55,2.47-11.52,3.37-2.56.58-5.09,1.26-7.58,2a77.51,77.51,0,0,1-18.83,3.15,45.37,45.37,0,0,1-9.09-.47c-3.82-.57-7.74-.79-11.61-1.18A143.5,143.5,0,0,1,867.32,9.6a47.12,47.12,0,0,0-9.44-.73c-2.69,0-5.38,0-8.07.05A9.81,9.81,0,0,1,845.29,8q-3.06-1.48-6.09-3a27.79,27.79,0,0,0-7.55-2.65,11.19,11.19,0,0,0-6.69.74c-1.26.54-2.43,1.2-3.65,1.8l-3.65,1.81A26.14,26.14,0,0,1,805.9,9.13Q725,9,644.15,9.08h-3.77c-1.28-1.57-2.65-2.95-2.65-4.93,0-1.77-2.27-2.7-4.45-2a21.05,21.05,0,0,0-3.39,1.59c-1.76,1-3.45,2-5.18,3A14.74,14.74,0,0,1,618,8.55c-11.6.65-23.21.52-34.82.53H-4.09c-1.34,0-2.68-.07-4-.1Z" style="fill:#00ace9"/><path d="M-8.11,11.13c1.21.08,2.42.21,3.63.21,24,0,577.94,0,601.91,0,3.53,0,7.05-.39,10.59-.58,2.92-.16,5.85-.38,8.78-.4a16.18,16.18,0,0,0,9-2.53c1.19-.77,2.52-1.43,3.76-2.16a3.42,3.42,0,0,1,3.38,0,4.36,4.36,0,0,1,2.25,2.06c.52,1.1,1.1,2.18,1.7,3.37.89.1,1.7.22,2.52.28s1.47,0,2.2,0q82.92,0,165.82.06A20.6,20.6,0,0,0,819.7,8a22.87,22.87,0,0,1,7.4-3.41,11.3,11.3,0,0,1,7.72.66c1.56.71,3,1.54,4.51,2.31a48.11,48.11,0,0,1,4.45,2.38,10.18,10.18,0,0,0,5.74,1.41c3.67,0,7.34,0,11,0a43.33,43.33,0,0,1,8.67.83c6,1.17,12.09,2.18,18.19,3.09a50.09,50.09,0,0,0,7.67.42c5.49,0,11-.14,16.48-.27a13.74,13.74,0,0,0,2.85-.44q8.91-2,17.81-4.11a32.34,32.34,0,0,0,6.66-2.21,16.45,16.45,0,0,1,3.65-1.2,8.72,8.72,0,0,1,5.94.71c1.2.63,2.42,1.23,3.64,1.84a11,11,0,0,0,4.78,1.2c1.83,0,3.67.14,5.5.14,66.4,0,741.87-.13,743.2-.21V9c-1.34,0-2.68.1-4,.1H962.39c-1.11,0-2.21-.05-3.31,0a11.73,11.73,0,0,1-7-1.92c-1-.65-2.08-1.26-3.15-1.86A9.27,9.27,0,0,0,941,4.74a1.83,1.83,0,0,0-.33.11c-3.51,1.73-7.55,2.47-11.52,3.37-2.56.58-5.09,1.26-7.58,2a77.51,77.51,0,0,1-18.83,3.15,45.37,45.37,0,0,1-9.09-.47c-3.82-.57-7.74-.79-11.61-1.18A143.5,143.5,0,0,1,867.32,9.6a47.12,47.12,0,0,0-9.44-.73c-2.69,0-5.38,0-8.07.05A9.81,9.81,0,0,1,845.29,8q-3.06-1.48-6.09-3a27.79,27.79,0,0,0-7.55-2.65,11.19,11.19,0,0,0-6.69.74c-1.26.54-2.43,1.2-3.65,1.8l-3.65,1.81A26.14,26.14,0,0,1,805.9,9.13Q725,9,644.15,9.08h-3.77c-1.28-1.57-2.65-2.95-2.65-4.93,0-1.77-2.27-2.7-4.45-2a21.05,21.05,0,0,0-3.39,1.59c-1.76,1-3.45,2-5.18,3A14.74,14.74,0,0,1,618,8.55c-11.6.65-23.21.52-34.82.53H-4.09c-1.34,0-2.68-.07-4-.1Z" style="fill:none;stroke:#00ace9;stroke-miterlimit:10;stroke-width:1.781000018119812px"/><g style="clip-path:url(#5105bcf0-3782-4cc4-b744-dfd0bc199b01)"><path d="M501.87,5.19c1.65,0,3.31.08,5,.08h664.75V8.19c-.43,0-.86.11-1.28.11-1.34,0-2.68,0-4,0H507.79c-2,0-4-.05-5.92-.07Z" style="fill:#009fe3;fill-rule:evenodd"/><path d="M501.87,5.19c1.65,0,3.31.08,5,.08h664.75V8.19c-.43,0-.86.11-1.28.11-1.34,0-2.68,0-4,0H507.79c-2,0-4-.05-5.92-.07Z" style="fill:#00ace9;fill-rule:evenodd"/></g></svg>