<svg id="86f1d19d-927c-42eb-ae2e-bd0b368c14bd" data-name="Calque 1" xmlns="http://www.w3.org/2000/svg" viewBox="0 0 258 33"><title>logo-bassinversant-contour</title><path d="M24.3,19a13.83,13.83,0,0,1-.44,3.67,8.45,8.45,0,0,1-1.29,2.77,5.73,5.73,0,0,1-2.06,1.77,6.14,6.14,0,0,1-2.78.61,7.18,7.18,0,0,1-1.44-.14A5.32,5.32,0,0,1,15,27.22a7.39,7.39,0,0,1-1.2-.83,11.33,11.33,0,0,1-1.21-1.2v1.67a.52.52,0,0,1-.09.31.69.69,0,0,1-.31.22,2.78,2.78,0,0,1-.57.12c-.24,0-.53,0-.88,0s-.65,0-.88,0a2.82,2.82,0,0,1-.56-.12.56.56,0,0,1-.3-.22.52.52,0,0,1-.09-.31V4.33A.48.48,0,0,1,9,4a.79.79,0,0,1,.35-.23A3.63,3.63,0,0,1,10,3.64a10,10,0,0,1,1.05-.05,9.62,9.62,0,0,1,1,.05,3.27,3.27,0,0,1,.66.15.69.69,0,0,1,.35.23.49.49,0,0,1,.11.31v8.44a9.27,9.27,0,0,1,1.16-1,7.85,7.85,0,0,1,1.17-.68,5.77,5.77,0,0,1,1.2-.38,6.75,6.75,0,0,1,1.3-.12,5.73,5.73,0,0,1,2.88.67,5.6,5.6,0,0,1,1.92,1.83A8.07,8.07,0,0,1,24,15.78,14.67,14.67,0,0,1,24.3,19Zm-4.47.31a12.93,12.93,0,0,0-.14-1.89,5.53,5.53,0,0,0-.51-1.61,3.21,3.21,0,0,0-.93-1.12,2.39,2.39,0,0,0-1.45-.42,3,3,0,0,0-.84.12,3.29,3.29,0,0,0-.85.41,6.5,6.5,0,0,0-.9.76,12.35,12.35,0,0,0-1,1.14v5.08A9.15,9.15,0,0,0,15,23.56a2.92,2.92,0,0,0,1.73.61,2.4,2.4,0,0,0,1.43-.43,3.5,3.5,0,0,0,1-1.12,4.92,4.92,0,0,0,.56-1.55A8.72,8.72,0,0,0,19.83,19.32Z" style="fill:#00b0f0"/><path d="M40.77,26.91a.45.45,0,0,1-.17.37,1.13,1.13,0,0,1-.54.2,7.38,7.38,0,0,1-1.09.06,7.29,7.29,0,0,1-1.12-.06.9.9,0,0,1-.5-.2.47.47,0,0,1-.15-.37V25.69a6.76,6.76,0,0,1-2.15,1.58,6.33,6.33,0,0,1-2.68.56,7.51,7.51,0,0,1-2.23-.31,5.19,5.19,0,0,1-1.77-.95A4.17,4.17,0,0,1,27.22,25a5.14,5.14,0,0,1-.41-2.16,4.87,4.87,0,0,1,.52-2.32,4.24,4.24,0,0,1,1.56-1.62,7.83,7.83,0,0,1,2.57-1,19,19,0,0,1,3.59-.3h1.49v-.93a4.73,4.73,0,0,0-.15-1.26,2.16,2.16,0,0,0-.48-.9A2,2,0,0,0,35,14a4.9,4.9,0,0,0-1.38-.17,7.13,7.13,0,0,0-1.93.24,12.34,12.34,0,0,0-1.5.53c-.43.2-.79.37-1.08.53a1.59,1.59,0,0,1-.71.24.52.52,0,0,1-.34-.12.8.8,0,0,1-.24-.34,2.31,2.31,0,0,1-.14-.55,4,4,0,0,1-.06-.72,3.16,3.16,0,0,1,.09-.84,1.31,1.31,0,0,1,.33-.55,3.1,3.1,0,0,1,.84-.55,9,9,0,0,1,1.4-.56,13.38,13.38,0,0,1,1.76-.42,11.36,11.36,0,0,1,2-.16,11.85,11.85,0,0,1,3.07.35A5.1,5.1,0,0,1,39.19,12a4.15,4.15,0,0,1,1.2,1.87,8.86,8.86,0,0,1,.38,2.73Zm-4.23-6.55H34.89a8.26,8.26,0,0,0-1.78.16,3.31,3.31,0,0,0-1.2.46,1.94,1.94,0,0,0-.68.75,2.26,2.26,0,0,0-.21,1,1.89,1.89,0,0,0,.61,1.5,2.4,2.4,0,0,0,1.68.55A3.17,3.17,0,0,0,35,24.32,7.35,7.35,0,0,0,36.54,23Z" style="fill:#00b0f0"/><path d="M55.83,22.54a5.18,5.18,0,0,1-.49,2.29A4.66,4.66,0,0,1,54,26.5a6.34,6.34,0,0,1-2.11,1,10,10,0,0,1-2.64.33,9.53,9.53,0,0,1-1.63-.13,9.37,9.37,0,0,1-1.4-.32,8.6,8.6,0,0,1-1-.4,2.83,2.83,0,0,1-.6-.39,1.28,1.28,0,0,1-.29-.56,4.72,4.72,0,0,1-.1-1.14c0-.34,0-.6,0-.8a2.14,2.14,0,0,1,.11-.48.42.42,0,0,1,.17-.24.49.49,0,0,1,.25-.06,1.26,1.26,0,0,1,.56.21c.25.15.55.3.92.48a8.74,8.74,0,0,0,1.27.47,5.64,5.64,0,0,0,1.66.23,4,4,0,0,0,1-.12,2.49,2.49,0,0,0,.79-.35,1.45,1.45,0,0,0,.51-.56,1.8,1.8,0,0,0,.17-.79,1.32,1.32,0,0,0-.32-.88,2.67,2.67,0,0,0-.84-.64,8.69,8.69,0,0,0-1.18-.52c-.44-.16-.89-.33-1.35-.53a10.09,10.09,0,0,1-1.36-.67,5.28,5.28,0,0,1-1.18-.92,4.26,4.26,0,0,1-.84-1.32,4.87,4.87,0,0,1-.31-1.85,4.76,4.76,0,0,1,.42-2A4.39,4.39,0,0,1,45.91,12a5.85,5.85,0,0,1,2-1,8.67,8.67,0,0,1,2.59-.36,9.14,9.14,0,0,1,1.4.1,10.77,10.77,0,0,1,1.22.26,5.48,5.48,0,0,1,.93.33,3.59,3.59,0,0,1,.54.31.9.9,0,0,1,.23.26.87.87,0,0,1,.1.31,2.34,2.34,0,0,1,.06.44,6.12,6.12,0,0,1,0,.66,7.48,7.48,0,0,1,0,.75,1.75,1.75,0,0,1-.08.47.42.42,0,0,1-.17.23.41.41,0,0,1-.23.06A1.1,1.1,0,0,1,54,14.6c-.22-.12-.49-.25-.82-.39A10.6,10.6,0,0,0,52,13.83a5.45,5.45,0,0,0-1.46-.18,3.73,3.73,0,0,0-1,.12,2,2,0,0,0-.71.34,1.46,1.46,0,0,0-.41.52,1.57,1.57,0,0,0-.13.65,1.27,1.27,0,0,0,.32.89,2.91,2.91,0,0,0,.86.63,9.84,9.84,0,0,0,1.2.51c.46.16.91.34,1.38.53a12.23,12.23,0,0,1,1.37.66,5.17,5.17,0,0,1,1.2.92,4.26,4.26,0,0,1,.86,1.31A4.54,4.54,0,0,1,55.83,22.54Z" style="fill:#00b0f0"/><path d="M69.82,22.54a5,5,0,0,1-.49,2.29A4.46,4.46,0,0,1,68,26.5a6.2,6.2,0,0,1-2.1,1,10,10,0,0,1-2.64.33,9.65,9.65,0,0,1-1.64-.13,9.23,9.23,0,0,1-1.39-.32,8,8,0,0,1-1-.4,2.59,2.59,0,0,1-.6-.39,1.18,1.18,0,0,1-.29-.56,4.72,4.72,0,0,1-.1-1.14c0-.34,0-.6,0-.8a2.21,2.21,0,0,1,.1-.48.39.39,0,0,1,.43-.3,1.3,1.3,0,0,1,.56.21c.24.15.55.3.91.48a8.9,8.9,0,0,0,1.28.47,5.62,5.62,0,0,0,1.65.23,4.07,4.07,0,0,0,1-.12,2.6,2.6,0,0,0,.79-.35,1.35,1.35,0,0,0,.5-.56,1.67,1.67,0,0,0,.17-.79,1.32,1.32,0,0,0-.31-.88,2.67,2.67,0,0,0-.84-.64,8.69,8.69,0,0,0-1.18-.52c-.44-.16-.89-.33-1.36-.53a10.59,10.59,0,0,1-1.35-.67,5.28,5.28,0,0,1-1.18-.92,4.26,4.26,0,0,1-.84-1.32,4.86,4.86,0,0,1-.32-1.85,4.62,4.62,0,0,1,.43-2A4.37,4.37,0,0,1,59.9,12a6,6,0,0,1,2-1,8.79,8.79,0,0,1,2.6-.36,9.23,9.23,0,0,1,1.4.1,10.77,10.77,0,0,1,1.22.26,5.81,5.81,0,0,1,.93.33,3.59,3.59,0,0,1,.54.31,1.07,1.07,0,0,1,.23.26,1.13,1.13,0,0,1,.1.31c0,.12,0,.26.06.44a6.12,6.12,0,0,1,0,.66,7.48,7.48,0,0,1,0,.75,2.18,2.18,0,0,1-.09.47.41.41,0,0,1-.16.23.48.48,0,0,1-.24.06A1.2,1.2,0,0,1,68,14.6q-.33-.18-.81-.39A11.43,11.43,0,0,0,66,13.83a5.48,5.48,0,0,0-1.47-.18,3.78,3.78,0,0,0-1,.12,1.91,1.91,0,0,0-.7.34,1.46,1.46,0,0,0-.41.52,1.58,1.58,0,0,0-.14.65,1.27,1.27,0,0,0,.33.89,2.85,2.85,0,0,0,.85.63,10.76,10.76,0,0,0,1.21.51c.45.16.91.34,1.37.53a11.45,11.45,0,0,1,1.37.66,5.23,5.23,0,0,1,1.21.92,4.45,4.45,0,0,1,.86,1.31A4.72,4.72,0,0,1,69.82,22.54Z" style="fill:#00b0f0"/><path d="M77.7,6.4a2.39,2.39,0,0,1-.53,1.8,4.19,4.19,0,0,1-3.93,0,2.34,2.34,0,0,1-.51-1.73,2.48,2.48,0,0,1,.53-1.81,2.84,2.84,0,0,1,2-.51,2.92,2.92,0,0,1,2,.49A2.38,2.38,0,0,1,77.7,6.4Zm-.32,20.46a.48.48,0,0,1-.11.3.75.75,0,0,1-.35.21,2.83,2.83,0,0,1-.66.13,10,10,0,0,1-1,0,10.33,10.33,0,0,1-1,0,3.07,3.07,0,0,1-.66-.13.87.87,0,0,1-.35-.21.47.47,0,0,1-.1-.3V11.61a.47.47,0,0,1,.1-.3.78.78,0,0,1,.35-.22,3,3,0,0,1,.66-.15,10,10,0,0,1,1,0,9.62,9.62,0,0,1,1,0,2.7,2.7,0,0,1,.66.15.68.68,0,0,1,.35.22.48.48,0,0,1,.11.3Z" style="fill:#00b0f0"/><path d="M96.27,26.86a.47.47,0,0,1-.1.3.83.83,0,0,1-.34.21,2.83,2.83,0,0,1-.66.13,13.67,13.67,0,0,1-2.09,0,2.83,2.83,0,0,1-.66-.13.76.76,0,0,1-.34-.21.48.48,0,0,1-.11-.3V18.14a7.27,7.27,0,0,0-.16-1.75,3.62,3.62,0,0,0-.47-1.09,2.08,2.08,0,0,0-.8-.7,2.4,2.4,0,0,0-1.14-.25,2.85,2.85,0,0,0-1.66.6A9,9,0,0,0,86,16.7V26.86a.47.47,0,0,1-.1.3.81.81,0,0,1-.35.21,3.07,3.07,0,0,1-.66.13,13.67,13.67,0,0,1-2.09,0,3.07,3.07,0,0,1-.66-.13.81.81,0,0,1-.35-.21.47.47,0,0,1-.1-.3V11.57a.61.61,0,0,1,.08-.3.7.7,0,0,1,.31-.21,2.41,2.41,0,0,1,.57-.13,7.41,7.41,0,0,1,.89,0,7.6,7.6,0,0,1,.9,0,2,2,0,0,1,.56.13.64.64,0,0,1,.28.21.53.53,0,0,1,.09.3v1.77a9.85,9.85,0,0,1,2.58-2.06,5.87,5.87,0,0,1,2.73-.68,6.08,6.08,0,0,1,2.63.51A4.7,4.7,0,0,1,95,12.51a5.57,5.57,0,0,1,1,2.06,11.8,11.8,0,0,1,.29,2.85Z" style="fill:#00b0f0"/><path d="M114.07,11.56a1.48,1.48,0,0,1,0,.2,1.39,1.39,0,0,1,0,.27c0,.1,0,.21-.07.33s-.07.27-.11.43l-4.59,13.83a1.58,1.58,0,0,1-.23.47,1,1,0,0,1-.48.28,4.48,4.48,0,0,1-.91.14q-.57,0-1.5,0c-.61,0-1.1,0-1.48,0a4.17,4.17,0,0,1-.9-.15.92.92,0,0,1-.47-.28,1.2,1.2,0,0,1-.23-.45L98.47,12.79c-.07-.23-.13-.43-.17-.62s-.06-.31-.07-.39v-.22a.49.49,0,0,1,.09-.3.66.66,0,0,1,.33-.22,3.59,3.59,0,0,1,.66-.12c.28,0,.63,0,1.06,0s.84,0,1.13,0a3.73,3.73,0,0,1,.67.12.7.7,0,0,1,.36.22,2,2,0,0,1,.17.36l3.47,11.22.11.43.1-.43,3.43-11.22a.85.85,0,0,1,.16-.36.71.71,0,0,1,.35-.22,3.5,3.5,0,0,1,.64-.12,10.17,10.17,0,0,1,1.06,0c.42,0,.76,0,1,0a3.21,3.21,0,0,1,.63.12.64.64,0,0,1,.31.22A.56.56,0,0,1,114.07,11.56Z" style="fill:#fff;stroke:#00b0f0;stroke-miterlimit:10;stroke-width:2px"/><path d="M130.4,18.77a1.7,1.7,0,0,1-.35,1.17,1.27,1.27,0,0,1-1,.37h-9.3a6.12,6.12,0,0,0,.23,1.77,3.12,3.12,0,0,0,2,2.21,5.64,5.64,0,0,0,1.91.29,11.49,11.49,0,0,0,2-.16,13.67,13.67,0,0,0,1.49-.36l1-.36a2,2,0,0,1,.67-.17.53.53,0,0,1,.26.06.44.44,0,0,1,.17.22,1.39,1.39,0,0,1,.09.43,7,7,0,0,1,0,.71c0,.26,0,.47,0,.65a4.39,4.39,0,0,1,0,.45,1.21,1.21,0,0,1-.1.32,2,2,0,0,1-.18.25,2.34,2.34,0,0,1-.61.32,8.79,8.79,0,0,1-1.27.4,15.63,15.63,0,0,1-1.76.35,15.87,15.87,0,0,1-2.13.14,11.3,11.3,0,0,1-3.57-.51,6.13,6.13,0,0,1-4.09-4.2,12.28,12.28,0,0,1-.51-3.73,12,12,0,0,1,.53-3.68,7.84,7.84,0,0,1,1.54-2.77,6.73,6.73,0,0,1,2.46-1.74,8.51,8.51,0,0,1,3.27-.6,8.72,8.72,0,0,1,3.28.56,6,6,0,0,1,2.23,1.57A6.49,6.49,0,0,1,130,15.1a10.52,10.52,0,0,1,.41,3Zm-4.18-1.23a4.5,4.5,0,0,0-.73-2.86,2.82,2.82,0,0,0-2.41-1,3.1,3.1,0,0,0-1.43.31,2.91,2.91,0,0,0-1,.83A3.73,3.73,0,0,0,120,16a5.69,5.69,0,0,0-.25,1.52Z" style="fill:#fff;stroke:#00b0f0;stroke-miterlimit:10;stroke-width:2px"/><path d="M143.76,13c0,.41,0,.75,0,1a3.07,3.07,0,0,1-.11.61.51.51,0,0,1-.18.31.43.43,0,0,1-.28.09,1,1,0,0,1-.31-.06l-.38-.13L142,14.7a2.56,2.56,0,0,0-.57-.06,1.86,1.86,0,0,0-.72.15,2.82,2.82,0,0,0-.74.45,5.73,5.73,0,0,0-.81.82,14.87,14.87,0,0,0-.9,1.27v9.53a.47.47,0,0,1-.1.3.87.87,0,0,1-.35.21,3.07,3.07,0,0,1-.66.13,10.33,10.33,0,0,1-1.05,0,10,10,0,0,1-1,0,2.83,2.83,0,0,1-.66-.13.81.81,0,0,1-.35-.21.48.48,0,0,1-.11-.3V11.57a.53.53,0,0,1,.09-.3.7.7,0,0,1,.31-.21,2.41,2.41,0,0,1,.57-.13,7.34,7.34,0,0,1,.88,0,7.67,7.67,0,0,1,.91,0,2,2,0,0,1,.56.13.71.71,0,0,1,.28.21.53.53,0,0,1,.09.3v1.91a11.73,11.73,0,0,1,1.13-1.42,6.39,6.39,0,0,1,1-.88,3,3,0,0,1,1-.45,3.52,3.52,0,0,1,1-.13l.48,0,.53.09a4,4,0,0,1,.48.14.92.92,0,0,1,.3.16.46.46,0,0,1,.13.19,1.2,1.2,0,0,1,.08.28,4.54,4.54,0,0,1,.05.54C143.75,12.26,143.76,12.59,143.76,13Z" style="fill:#fff;stroke:#00b0f0;stroke-miterlimit:10;stroke-width:2px"/><path d="M156.75,22.54a5.18,5.18,0,0,1-.49,2.29,4.66,4.66,0,0,1-1.38,1.67,6.34,6.34,0,0,1-2.11,1,10,10,0,0,1-2.64.33,9.53,9.53,0,0,1-1.63-.13,9.37,9.37,0,0,1-1.4-.32,8.6,8.6,0,0,1-1-.4,2.83,2.83,0,0,1-.6-.39,1.28,1.28,0,0,1-.29-.56,4.72,4.72,0,0,1-.1-1.14c0-.34,0-.6,0-.8a2.14,2.14,0,0,1,.11-.48.42.42,0,0,1,.17-.24.5.5,0,0,1,.26-.06,1.28,1.28,0,0,1,.55.21c.25.15.55.3.92.48a8.74,8.74,0,0,0,1.27.47,5.64,5.64,0,0,0,1.66.23,4,4,0,0,0,1-.12,2.49,2.49,0,0,0,.79-.35,1.45,1.45,0,0,0,.51-.56,1.8,1.8,0,0,0,.17-.79,1.32,1.32,0,0,0-.32-.88,2.67,2.67,0,0,0-.84-.64,8.69,8.69,0,0,0-1.18-.52c-.44-.16-.89-.33-1.35-.53a10.09,10.09,0,0,1-1.36-.67,5.28,5.28,0,0,1-1.18-.92,4.26,4.26,0,0,1-.84-1.32,4.87,4.87,0,0,1-.31-1.85,4.76,4.76,0,0,1,.42-2A4.39,4.39,0,0,1,146.83,12a5.85,5.85,0,0,1,2-1,8.67,8.67,0,0,1,2.59-.36,9.14,9.14,0,0,1,1.4.1A10.77,10.77,0,0,1,154,11a5.48,5.48,0,0,1,.93.33,3.59,3.59,0,0,1,.54.31.77.77,0,0,1,.23.26.87.87,0,0,1,.1.31,2.34,2.34,0,0,1,.06.44,6.12,6.12,0,0,1,0,.66,7.48,7.48,0,0,1,0,.75,1.75,1.75,0,0,1-.08.47.47.47,0,0,1-.16.23.48.48,0,0,1-.24.06,1.1,1.1,0,0,1-.48-.18c-.22-.12-.49-.25-.82-.39a10.6,10.6,0,0,0-1.13-.38,5.4,5.4,0,0,0-1.46-.18,3.73,3.73,0,0,0-1,.12,2,2,0,0,0-.71.34,1.46,1.46,0,0,0-.41.52,1.57,1.57,0,0,0-.13.65,1.27,1.27,0,0,0,.32.89,2.91,2.91,0,0,0,.86.63,9.38,9.38,0,0,0,1.21.51c.45.16.9.34,1.37.53a12.23,12.23,0,0,1,1.37.66,5.17,5.17,0,0,1,1.2.92,4.26,4.26,0,0,1,.86,1.31A4.54,4.54,0,0,1,156.75,22.54Z" style="fill:#fff;stroke:#00b0f0;stroke-miterlimit:10;stroke-width:2px"/><path d="M173,26.91a.43.43,0,0,1-.17.37,1.05,1.05,0,0,1-.54.2,7.29,7.29,0,0,1-1.09.06,7.47,7.47,0,0,1-1.12-.06.86.86,0,0,1-.49-.2.47.47,0,0,1-.15-.37V25.69a6.88,6.88,0,0,1-2.15,1.58,6.37,6.37,0,0,1-2.68.56,7.58,7.58,0,0,1-2.24-.31,5.15,5.15,0,0,1-1.76-.95A4.19,4.19,0,0,1,159.45,25a5.3,5.3,0,0,1-.41-2.16,5,5,0,0,1,.52-2.32,4.24,4.24,0,0,1,1.56-1.62,7.81,7.81,0,0,1,2.58-1,18.93,18.93,0,0,1,3.58-.3h1.49v-.93a5.21,5.21,0,0,0-.14-1.26,2.16,2.16,0,0,0-.48-.9,2.08,2.08,0,0,0-.89-.53,5,5,0,0,0-1.38-.17,7.13,7.13,0,0,0-1.93.24,11.24,11.24,0,0,0-1.5.53c-.43.2-.8.37-1.09.53a1.59,1.59,0,0,1-.71.24.5.5,0,0,1-.33-.12.8.8,0,0,1-.24-.34,2.86,2.86,0,0,1-.15-.55,5.31,5.31,0,0,1-.05-.72,3.16,3.16,0,0,1,.09-.84,1.19,1.19,0,0,1,.32-.55,3.1,3.1,0,0,1,.84-.55,9.63,9.63,0,0,1,1.41-.56,13.22,13.22,0,0,1,1.75-.42,11.52,11.52,0,0,1,2-.16,11.93,11.93,0,0,1,3.08.35,5.1,5.1,0,0,1,2.1,1.08,4.15,4.15,0,0,1,1.2,1.87,8.88,8.88,0,0,1,.37,2.73Zm-4.23-6.55h-1.64a8.26,8.26,0,0,0-1.78.16,3.24,3.24,0,0,0-1.2.46,1.87,1.87,0,0,0-.68.75,2.26,2.26,0,0,0-.21,1,1.91,1.91,0,0,0,.6,1.5,2.42,2.42,0,0,0,1.69.55,3.13,3.13,0,0,0,1.67-.46A6.89,6.89,0,0,0,168.77,23Z" style="fill:#fff;stroke:#00b0f0;stroke-miterlimit:10;stroke-width:2px"/><path d="M191.9,26.86a.47.47,0,0,1-.1.3.87.87,0,0,1-.35.21,2.83,2.83,0,0,1-.66.13,10,10,0,0,1-1,0,10.54,10.54,0,0,1-1.06,0,2.83,2.83,0,0,1-.66-.13.83.83,0,0,1-.34-.21.47.47,0,0,1-.1-.3V18.14a7.82,7.82,0,0,0-.16-1.75A3.62,3.62,0,0,0,187,15.3a2.15,2.15,0,0,0-.8-.7,2.45,2.45,0,0,0-1.14-.25,2.85,2.85,0,0,0-1.66.6,9,9,0,0,0-1.75,1.75V26.86a.47.47,0,0,1-.1.3.87.87,0,0,1-.35.21,3.07,3.07,0,0,1-.66.13,10.33,10.33,0,0,1-1,0,10,10,0,0,1-1,0,2.83,2.83,0,0,1-.66-.13.81.81,0,0,1-.35-.21.48.48,0,0,1-.11-.3V11.57a.53.53,0,0,1,.09-.3.7.7,0,0,1,.31-.21,2.41,2.41,0,0,1,.57-.13,7.34,7.34,0,0,1,.88,0,7.67,7.67,0,0,1,.91,0,2,2,0,0,1,.56.13.71.71,0,0,1,.28.21.53.53,0,0,1,.09.3v1.77a9.81,9.81,0,0,1,2.57-2.06,5.94,5.94,0,0,1,2.74-.68,6.11,6.11,0,0,1,2.63.51,4.7,4.7,0,0,1,1.73,1.4,5.74,5.74,0,0,1,1,2.06,12.32,12.32,0,0,1,.29,2.85Z" style="fill:#fff;stroke:#00b0f0;stroke-miterlimit:10;stroke-width:2px"/><path d="M204.85,25.35a5.53,5.53,0,0,1-.09,1.15,1.39,1.39,0,0,1-.25.57,1.35,1.35,0,0,1-.46.29,3.61,3.61,0,0,1-.7.22,5.63,5.63,0,0,1-.87.15c-.32,0-.63.05-.95.05a7,7,0,0,1-2.23-.32,3.74,3.74,0,0,1-1.56-1,4.27,4.27,0,0,1-.91-1.7,9.2,9.2,0,0,1-.29-2.43V14.49h-1.83c-.22,0-.38-.14-.5-.41a3.79,3.79,0,0,1-.17-1.34,6.74,6.74,0,0,1,0-.84,1.94,1.94,0,0,1,.13-.54.64.64,0,0,1,.22-.28.49.49,0,0,1,.3-.09h1.81V7.58a.52.52,0,0,1,.1-.31A.72.72,0,0,1,197,7a2.93,2.93,0,0,1,.67-.13,9.7,9.7,0,0,1,1,0,10,10,0,0,1,1.06,0,2.83,2.83,0,0,1,.66.13.84.84,0,0,1,.34.23.52.52,0,0,1,.1.31V11h3.33a.48.48,0,0,1,.29.09.64.64,0,0,1,.22.28,1.94,1.94,0,0,1,.13.54,6.74,6.74,0,0,1,0,.84,3.79,3.79,0,0,1-.17,1.34c-.12.27-.28.41-.5.41h-3.34v7.18a3.49,3.49,0,0,0,.4,1.87,1.52,1.52,0,0,0,1.4.63,3,3,0,0,0,.62-.06,4.84,4.84,0,0,0,.49-.14l.35-.14a.74.74,0,0,1,.27-.06.39.39,0,0,1,.2.06.39.39,0,0,1,.14.24,3,3,0,0,1,.1.49A5.82,5.82,0,0,1,204.85,25.35Z" style="fill:#fff;stroke:#00b0f0;stroke-miterlimit:10;stroke-width:2px"/><circle cx="213.54" cy="22.6" r="4.54" style="fill:#00b0f0"/><path d="M230.76,22.75a6.5,6.5,0,0,1-.27,1.92,4.32,4.32,0,0,1-.82,1.51,3.66,3.66,0,0,1-1.36,1,4.7,4.7,0,0,1-1.9.36,5,5,0,0,1-1.82-.31,3.29,3.29,0,0,1-1.3-.91,3.82,3.82,0,0,1-.78-1.45,6.69,6.69,0,0,1-.25-1.93,6.78,6.78,0,0,1,.26-1.91,4.24,4.24,0,0,1,.82-1.51,3.62,3.62,0,0,1,1.35-1,5.44,5.44,0,0,1,3.73,0,3.29,3.29,0,0,1,1.3.91,3.85,3.85,0,0,1,.78,1.44A6.37,6.37,0,0,1,230.76,22.75Zm-1.61.11a6.84,6.84,0,0,0-.13-1.31,3.12,3.12,0,0,0-.43-1.07,2,2,0,0,0-.8-.74,2.67,2.67,0,0,0-1.26-.27,2.71,2.71,0,0,0-1.19.25,2.23,2.23,0,0,0-.83.69,3,3,0,0,0-.48,1.07,5.13,5.13,0,0,0-.16,1.34,6.06,6.06,0,0,0,.13,1.31,3.26,3.26,0,0,0,.43,1.08,2.18,2.18,0,0,0,.81.72,2.6,2.6,0,0,0,1.25.27,2.79,2.79,0,0,0,1.2-.24,2.42,2.42,0,0,0,.83-.69,3.11,3.11,0,0,0,.47-1.06A5.68,5.68,0,0,0,229.15,22.86Z" style="fill:#00b0f0"/><path d="M238,19.15c0,.14,0,.26,0,.35a.87.87,0,0,1,0,.22.32.32,0,0,1-.07.13.16.16,0,0,1-.12,0,.45.45,0,0,1-.18,0l-.25-.09-.3-.08a2.21,2.21,0,0,0-.37,0,1.23,1.23,0,0,0-.46.1,1.77,1.77,0,0,0-.48.31,4.46,4.46,0,0,0-.53.58c-.18.24-.38.53-.6.88V27.1a.2.2,0,0,1,0,.13.41.41,0,0,1-.12.09l-.24.06h-.76l-.25-.06a.31.31,0,0,1-.12-.09.28.28,0,0,1,0-.13V18.6a.23.23,0,0,1,0-.13.22.22,0,0,1,.11-.1.65.65,0,0,1,.22-.05l.35,0,.34,0a.65.65,0,0,1,.22.05.24.24,0,0,1,.1.1.17.17,0,0,1,0,.13v1.23a7.32,7.32,0,0,1,.65-.83,3.57,3.57,0,0,1,.59-.5,1.67,1.67,0,0,1,.54-.26,2,2,0,0,1,.54-.07h.28l.33.06.3.08a.46.46,0,0,1,.2.1.18.18,0,0,1,.07.09.23.23,0,0,1,0,.1c0,.05,0,.11,0,.2Z" style="fill:#00b0f0"/><path d="M246.65,19a1,1,0,0,1-.09.48.27.27,0,0,1-.23.15h-1.22a1.84,1.84,0,0,1,.46.75,2.7,2.7,0,0,1,.14.85,3.36,3.36,0,0,1-.24,1.31,2.55,2.55,0,0,1-.68,1,3.05,3.05,0,0,1-1,.6,4.05,4.05,0,0,1-1.34.21,3.53,3.53,0,0,1-1-.14,2,2,0,0,1-.72-.35,1.48,1.48,0,0,0-.28.39,1,1,0,0,0-.11.5.65.65,0,0,0,.31.55,1.55,1.55,0,0,0,.81.24l2.22.09a4.28,4.28,0,0,1,1.17.18,2.75,2.75,0,0,1,.91.44,2.08,2.08,0,0,1,.61.71,2.15,2.15,0,0,1,.22,1,2.65,2.65,0,0,1-.25,1.11,2.46,2.46,0,0,1-.75.93,3.89,3.89,0,0,1-1.29.64,6.72,6.72,0,0,1-1.85.23,7.45,7.45,0,0,1-1.76-.18,3.68,3.68,0,0,1-1.18-.47,1.85,1.85,0,0,1-.67-.73,2,2,0,0,1-.21-.91,2.35,2.35,0,0,1,.07-.6,2.13,2.13,0,0,1,.23-.56,3.14,3.14,0,0,1,.39-.51,5.24,5.24,0,0,1,.54-.48,1.62,1.62,0,0,1-.69-.59,1.44,1.44,0,0,1-.22-.78,2.2,2.2,0,0,1,.24-1,3.33,3.33,0,0,1,.58-.81,2.69,2.69,0,0,1-.46-.79,2.81,2.81,0,0,1-.17-1.06,3.4,3.4,0,0,1,.24-1.31,2.93,2.93,0,0,1,.68-1,3,3,0,0,1,1.05-.61,4.08,4.08,0,0,1,1.33-.21,5.39,5.39,0,0,1,.72,0,5.86,5.86,0,0,1,.63.12h2.57a.25.25,0,0,1,.24.16A1.1,1.1,0,0,1,246.65,19ZM245,28a.94.94,0,0,0-.45-.84,2.26,2.26,0,0,0-1.22-.32l-2.2-.08a4.7,4.7,0,0,0-.5.45,2.5,2.5,0,0,0-.3.41,1.35,1.35,0,0,0-.16.38,1.72,1.72,0,0,0,0,.39,1,1,0,0,0,.62.93,3.94,3.94,0,0,0,1.74.32,4.46,4.46,0,0,0,1.19-.14,2.3,2.3,0,0,0,.77-.36,1.56,1.56,0,0,0,.42-.52A1.64,1.64,0,0,0,245,28Zm-.79-6.74a1.83,1.83,0,0,0-.48-1.35,1.78,1.78,0,0,0-1.35-.49,1.92,1.92,0,0,0-.79.15A1.56,1.56,0,0,0,241,20a1.64,1.64,0,0,0-.33.61,2.46,2.46,0,0,0-.11.72,1.66,1.66,0,0,0,1.82,1.8,2,2,0,0,0,.8-.14,1.46,1.46,0,0,0,.56-.41,1.6,1.6,0,0,0,.33-.6A2.11,2.11,0,0,0,244.21,21.22Z" style="fill:#00b0f0"/></svg>