<svg id="db1e06e2-0ad6-49f8-8a3a-bfaa67172553" data-name="Calque 1" xmlns="http://www.w3.org/2000/svg" viewBox="0 0 104 51" >
    <title>logo ANEB</title><path d="M99.12,3,97.87,1.15a19.14,19.14,0,0,1-5.6,3,20.38,20.38,0,0,1-6.57,1,20.37,20.37,0,0,1-6.56-1,18.79,18.79,0,0,1-4.88-2.55s-.46-.39-.52-.34-.52.34-.52.34a19,19,0,0,1-4.88,2.55,20.38,20.38,0,0,1-6.57,1,20.37,20.37,0,0,1-6.56-1,18.79,18.79,0,0,1-4.88-2.55s-.46-.39-.52-.34-.52.34-.52.34a19,19,0,0,1-4.88,2.55,20.38,20.38,0,0,1-6.57,1,20.37,20.37,0,0,1-6.56-1,19,19,0,0,1-4.89-2.55s-.45-.39-.51-.34-.52.34-.52.34a19,19,0,0,1-4.88,2.55,20.38,20.38,0,0,1-6.57,1,20.47,20.47,0,0,1-6.57-1,19.09,19.09,0,0,1-5.59-3L.5,3A21.94,21.94,0,0,0,6.55,6.46a20.54,20.54,0,0,0,7.36,1.31,20.46,20.46,0,0,0,7.36-1.31A22.81,22.81,0,0,0,25.88,4a22.55,22.55,0,0,0,4.61,2.48,20.44,20.44,0,0,0,7.35,1.31A20.46,20.46,0,0,0,45.2,6.46,22.81,22.81,0,0,0,49.81,4a22.55,22.55,0,0,0,4.61,2.48,20.44,20.44,0,0,0,7.35,1.31,20.46,20.46,0,0,0,7.36-1.31A22.81,22.81,0,0,0,73.74,4a22.81,22.81,0,0,0,4.61,2.48A20.44,20.44,0,0,0,85.7,7.77a20.46,20.46,0,0,0,7.36-1.31A22,22,0,0,0,99.12,3" style="fill:#5c5c5b"/><path d="M20.76,47.05c-.34-1-.69-2-1.05-2.93s-.72-1.95-1.05-3H8.07c-.34,1-.69,2-1,3s-.69,1.94-1,2.91H1.26q1.41-4,2.68-7.42t2.47-6.44q1.21-3,2.4-5.78c.8-1.84,1.62-3.64,2.46-5.43h4.35c.85,1.79,1.67,3.59,2.46,5.43s1.6,3.76,2.41,5.78,1.64,4.18,2.5,6.44,1.75,4.74,2.69,7.42Zm-7.4-20.22c-.55,1.28-1.19,2.83-1.9,4.66s-1.45,3.83-2.22,6h8.25c-.78-2.14-1.52-4.14-2.25-6S13.89,28.06,13.36,26.83Z" style="fill:#fff"/><path d="M46.08,47.05c-.82-1.38-1.74-2.85-2.75-4.43s-2.06-3.17-3.15-4.78S38,34.68,36.87,33.18s-2.18-2.87-3.2-4.07V47.05H29.19V22h3.72c1,1,2,2.21,3.11,3.6s2.23,2.83,3.35,4.32,2.21,3,3.26,4.51,2,2.91,2.8,4.21V22H50V47.05Z" style="fill:#fff"/><path d="M56.32,47.05V22H72.41v3.87H60.87V32H71.15v3.79H60.87v7.35H73.28v3.87Z" style="fill:#fff"/><path d="M85.4,47.34c-1.33,0-2.67,0-4-.13a18.72,18.72,0,0,1-3.54-.52V22.34l1.7-.27c.6-.08,1.22-.15,1.84-.2s1.25-.08,1.87-.11l1.75,0a24.33,24.33,0,0,1,4.23.34,10.82,10.82,0,0,1,3.39,1.14,5.91,5.91,0,0,1,2.22,2.1,6.08,6.08,0,0,1,.8,3.22,5.4,5.4,0,0,1-.85,3,6,6,0,0,1-2.37,2,6.63,6.63,0,0,1,3.36,2.24,6.26,6.26,0,0,1,1.09,3.77A6.55,6.55,0,0,1,94,45.4Q91.22,47.33,85.4,47.34ZM82.32,32.18h3.22a9.34,9.34,0,0,0,4.09-.74,2.7,2.7,0,0,0,1.48-2.66,2.66,2.66,0,0,0-1.53-2.57,9.17,9.17,0,0,0-4-.76c-.7,0-1.32,0-1.86,0s-1,.06-1.4.11Zm0,3.58V43.4c.51,0,1.05.08,1.63.1s1.11,0,1.59,0a18,18,0,0,0,2.63-.18,6.84,6.84,0,0,0,2.09-.63,3.85,3.85,0,0,0,1.42-1.22,3.4,3.4,0,0,0,.52-1.95,3.08,3.08,0,0,0-1.56-3,9.25,9.25,0,0,0-4.3-.83Z" style="fill:#fff"/></svg>