<svg id="35cbc06b-aa50-49b2-ba4b-b9923bd63f11" data-name="Calque 1" xmlns="http://www.w3.org/2000/svg" viewBox="0 0 100 10"><title>vague</title><path d="M99.12,4,97.87,2.15a19.14,19.14,0,0,1-5.6,3,20.38,20.38,0,0,1-6.57,1,20.37,20.37,0,0,1-6.56-1,18.79,18.79,0,0,1-4.88-2.55s-.46-.39-.52-.34-.52.34-.52.34a19,19,0,0,1-4.88,2.55,20.38,20.38,0,0,1-6.57,1,20.37,20.37,0,0,1-6.56-1,18.79,18.79,0,0,1-4.88-2.55s-.46-.39-.52-.34-.52.34-.52.34a19,19,0,0,1-4.88,2.55,20.38,20.38,0,0,1-6.57,1,20.37,20.37,0,0,1-6.56-1,19,19,0,0,1-4.89-2.55s-.45-.39-.51-.34-.52.34-.52.34a19,19,0,0,1-4.88,2.55,20.38,20.38,0,0,1-6.57,1,20.47,20.47,0,0,1-6.57-1,19.09,19.09,0,0,1-5.59-3L.5,4A21.94,21.94,0,0,0,6.55,7.46a20.54,20.54,0,0,0,7.36,1.31,20.46,20.46,0,0,0,7.36-1.31A22.81,22.81,0,0,0,25.88,5a22.55,22.55,0,0,0,4.61,2.48,20.44,20.44,0,0,0,7.35,1.31A20.46,20.46,0,0,0,45.2,7.46,22.81,22.81,0,0,0,49.81,5a22.55,22.55,0,0,0,4.61,2.48,20.44,20.44,0,0,0,7.35,1.31,20.46,20.46,0,0,0,7.36-1.31A22.81,22.81,0,0,0,73.74,5a22.81,22.81,0,0,0,4.61,2.48A20.44,20.44,0,0,0,85.7,8.77a20.46,20.46,0,0,0,7.36-1.31A22,22,0,0,0,99.12,4" style="fill:#5c5c5b"/></svg>