<svg id="f64c49a5-a9c2-46a8-9f82-ced4ebfd8318" data-name="Calque 1" xmlns="http://www.w3.org/2000/svg" xmlns:xlink="http://www.w3.org/1999/xlink" viewBox="0 0 1564.79 517.47"><defs><radialGradient id="15b2dafa-4a1e-435a-9a38-59a78d259be4" cx="1168.89" cy="-2538.56" r="368.07" gradientTransform="translate(-2110.27 -927.34) rotate(90)" gradientUnits="userSpaceOnUse"><stop offset="0" stop-color="#fff"/><stop offset="0.57" stop-color="#09919f"/><stop offset="1" stop-color="#1b1a39"/></radialGradient><radialGradient id="4e23b0c6-9ba7-470b-8bd8-b02f4892e154" cx="1171.52" cy="-2550.39" r="127.53" xlink:href="#15b2dafa-4a1e-435a-9a38-59a78d259be4"/></defs><title>logo</title><path d="M94.77,395.87A124.43,124.43,0,0,1,43.89,260.46c-.21-4-.61-8-.61-12.09a245.8,245.8,0,0,1,1.64-27C.54,281.12-3.88,364.62,40.16,429.84c53,78.5,156.88,101.89,238,56.2A237.09,237.09,0,0,1,94.77,395.87Z" style="fill:#d6d6d6"/><path d="M61,362.17a125.36,125.36,0,0,0,33.79,33.7A236.39,236.39,0,0,1,43.89,260.46,124.67,124.67,0,0,0,61,362.17Z" style="fill:#d6d6d6"/><path d="M518.76,248.7c0-122.18-92.21-222.77-210.83-236.19a243,243,0,0,0-27-1.64c-4.08,0-8.07.4-12.09.61A237.42,237.42,0,0,0,43.24,245.73c0,1-.15,2-.15,3,0,131.33,106.49,237.82,237.82,237.82S518.76,380,518.76,248.7Zm-344.49,0a165,165,0,0,1,304.56-88.3,121,121,0,0,1,0,176.57A165.05,165.05,0,0,1,174.27,248.7Z" style="fill:url(#15b2dafa-4a1e-435a-9a38-59a78d259be4)"/><path d="M478.86,337a121.35,121.35,0,1,1,0-176.57,165.16,165.16,0,1,0,0,176.57Z" style="fill:#fff"/><path d="M274.39,248.7A121.24,121.24,0,1,0,395.75,127.35,121.37,121.37,0,0,0,274.39,248.7Z" style="fill:url(#4e23b0c6-9ba7-470b-8bd8-b02f4892e154)"/><path d="M579.42,48.66a41.15,41.15,0,0,1,10.43-3.48,56,56,0,0,1,8.94-.74,54.61,54.61,0,0,1,8.86.74,41.34,41.34,0,0,1,9.85,3.15,39.33,39.33,0,0,1,9.69,6.13,33.1,33.1,0,0,1,7.61,10.26,42.25,42.25,0,0,1,4.14,15.15c0,2.44-1.1,3.65-3.31,3.65h-1.49a3,3,0,0,1-3.31-3,36.94,36.94,0,0,0-3.48-12.26,24,24,0,0,0-6.12-8.11,31.13,31.13,0,0,0-8-4.63,31.68,31.68,0,0,0-12.34-2.82,55.6,55.6,0,0,0-9.43.66,35.22,35.22,0,0,0-8.37,2.82A27.28,27.28,0,0,0,575,61.91a28.17,28.17,0,0,0-5.88,10,42.61,42.61,0,0,0-2.4,14.9v32.45a39,39,0,0,0,2.65,14.91,28.69,28.69,0,0,0,6.37,10,29.47,29.47,0,0,0,8.7,5.72,37.28,37.28,0,0,0,14.9,3.48,48.56,48.56,0,0,0,11.84-1.25,32.22,32.22,0,0,0,9.69-4.39q10.26-6.45,10.26-24c0-1.88.3-3.09.91-3.65a3.45,3.45,0,0,1,2.4-.83h1.33q3.32,0,3.31,3.32a45.1,45.1,0,0,1-3.23,17.71q-3.23,7.62-7.53,11.51a33.42,33.42,0,0,1-10.1,6.21q-8.94,3.48-15.65,3.48a70.5,70.5,0,0,1-11.59-.83A43.38,43.38,0,0,1,580.08,157a39.81,39.81,0,0,1-10.6-7.12,33.86,33.86,0,0,1-7.7-12.17,48.28,48.28,0,0,1-3.14-18V86.17a50.94,50.94,0,0,1,3.06-18.38q3.06-8,7.45-12.17A37.41,37.41,0,0,1,579.42,48.66Z" style="fill:#1c6684"/><path d="M660.06,62.23h41.68a2.46,2.46,0,0,1,2.39,2.39v1.07a2.21,2.21,0,0,1-.72,1.73,2.38,2.38,0,0,1-1.67.66H661.26V140h40.48a2.42,2.42,0,0,1,1.67.65,2.24,2.24,0,0,1,.72,1.73v1.08a2.46,2.46,0,0,1-2.39,2.39H660c-1.91,0-3.17-.42-3.77-1.26a6,6,0,0,1-.89-3.52V66.89a5,5,0,0,1,1.07-3.52A5,5,0,0,1,660.06,62.23Zm8.36,37.26H694a2.23,2.23,0,0,1,1.73.71,2.4,2.4,0,0,1,.66,1.67V103a2.12,2.12,0,0,1-2.39,2.39H668.42A2.11,2.11,0,0,1,666,103v-1.08a2.39,2.39,0,0,1,.65-1.67A2.23,2.23,0,0,1,668.42,99.49Z" style="fill:#1d1d1b"/><path d="M720,62a5.62,5.62,0,0,1,5,2.86q23.06,38.22,42.39,72.73v-73a2.37,2.37,0,0,1,.66-1.67,2.24,2.24,0,0,1,1.73-.72H771a2.24,2.24,0,0,1,1.73.72,2.37,2.37,0,0,1,.66,1.67V141.4a4.29,4.29,0,0,1-1.38,3.52,5.92,5.92,0,0,1-3.88,1.13,4.88,4.88,0,0,1-4.18-2.62L721.56,70.71v72.72a2.44,2.44,0,0,1-2.39,2.39h-1.31a2.09,2.09,0,0,1-1.61-.72,2.38,2.38,0,0,1-.66-1.67V66.89Q715.59,62,720,62Z" style="fill:#1d1d1b"/><path d="M785.8,62.23h53a2.21,2.21,0,0,1,1.73.72,2.37,2.37,0,0,1,.66,1.67v1.31c0,1.43-.8,2.15-2.39,2.15h-53c-1.59,0-2.38-.72-2.38-2.15V64.62a2.25,2.25,0,0,1,.71-1.67A2.28,2.28,0,0,1,785.8,62.23Zm25.8,9.08h1.19c1.59,0,2.39.75,2.39,2.26v69.86a2.38,2.38,0,0,1-.66,1.67,2.21,2.21,0,0,1-1.73.72H811.6a2.25,2.25,0,0,1-1.74-.72,2.42,2.42,0,0,1-.65-1.67V73.57C809.21,72.06,810,71.31,811.6,71.31Z" style="fill:#1d1d1b"/><path d="M855.9,62.23h16.36q28.89,0,28.9,22.69a24.08,24.08,0,0,1-5.62,15.7q-5.61,6.87-17.67,6.87h-1.31l25.79,33.91a8.5,8.5,0,0,1,1.43,2.62c0,1.2-.56,1.8-1.67,1.8h-2.39a2.62,2.62,0,0,1-2.26-1l-27.59-36.3a6,6,0,0,1-1.31-3.11q0-3.81,4.18-3.81H878a20.11,20.11,0,0,0,8.6-1.68,11.88,11.88,0,0,0,5.25-4.3A19.19,19.19,0,0,0,895.19,85q0-16.85-23.05-16.84H856.86v75.23a2.38,2.38,0,0,1-.66,1.67,2.24,2.24,0,0,1-1.73.72h-1.2a2.24,2.24,0,0,1-1.73-.72,2.38,2.38,0,0,1-.66-1.67V67.84c0-2.15.34-3.62,1-4.42S853.91,62.23,855.9,62.23Z" style="fill:#1d1d1b"/><path d="M916.68,62.23h41.67a2.46,2.46,0,0,1,2.39,2.39v1.07a2.21,2.21,0,0,1-.72,1.73,2.37,2.37,0,0,1-1.67.66H917.87V140h40.48a2.4,2.4,0,0,1,1.67.65,2.24,2.24,0,0,1,.72,1.73v1.08a2.46,2.46,0,0,1-2.39,2.39H916.56c-1.91,0-3.17-.42-3.77-1.26a6,6,0,0,1-.89-3.52V66.89a4,4,0,0,1,4.78-4.66ZM925,99.49h25.56a2.22,2.22,0,0,1,1.73.71,2.4,2.4,0,0,1,.66,1.67V103a2.12,2.12,0,0,1-2.39,2.39H925a2.11,2.11,0,0,1-2.38-2.39v-1.08a2.44,2.44,0,0,1,.65-1.67A2.23,2.23,0,0,1,925,99.49Z" style="fill:#1d1d1b"/><path d="M581,191.1a43.45,43.45,0,0,1,10.43-3.23,62.91,62.91,0,0,1,9.19-.66A59.67,59.67,0,0,1,610,188a43,43,0,0,1,10.51,3.4,35.13,35.13,0,0,1,10.19,6.87A33.41,33.41,0,0,1,638,210.14a49.08,49.08,0,0,1,3,17.8v33.62a51,51,0,0,1-3.06,18.38q-3.07,7.95-7.45,12.25a35.32,35.32,0,0,1-10.19,6.95,47.37,47.37,0,0,1-19.54,4.14q-10.76,0-18.29-3.64a43,43,0,0,1-11.84-7.95q-4.3-4.31-7.29-12.17a50.58,50.58,0,0,1-3-18V227.94a49.4,49.4,0,0,1,3.07-18.21q3.06-7.78,7.36-11.92A34.33,34.33,0,0,1,581,191.1Zm35.19,7.45a35.57,35.57,0,0,0-8.28-2.65,46.07,46.07,0,0,0-7.29-.58,47.67,47.67,0,0,0-7.37.58,35.19,35.19,0,0,0-8.36,2.65,27.32,27.32,0,0,0-8.19,5.47,26.49,26.49,0,0,0-5.88,9.77,41.91,41.91,0,0,0-2.4,14.82v32.45a42.61,42.61,0,0,0,2.4,14.9,27.39,27.39,0,0,0,6,10,28.12,28.12,0,0,0,8.19,5.71,34.34,34.34,0,0,0,8.37,2.82,41.42,41.42,0,0,0,14.73,0,34.48,34.48,0,0,0,8.37-2.82,27.11,27.11,0,0,0,8.11-5.71,28.17,28.17,0,0,0,5.88-10,42.61,42.61,0,0,0,2.4-14.9V228.61a40.54,40.54,0,0,0-2.49-14.82,24.72,24.72,0,0,0-14.15-15.24Z" style="fill:#1c6684"/><path d="M666.54,201.94h18.51a27.85,27.85,0,0,1,15.4,4.54,17.05,17.05,0,0,1,6,6.92,23.7,23.7,0,0,1,2.27,10.75A23.42,23.42,0,0,1,703.2,240q-5.49,6.39-19.11,6.39h-7.88a2.24,2.24,0,0,1-1.73-.72,2.38,2.38,0,0,1-.66-1.67V242.9a2.11,2.11,0,0,1,2.39-2.39h6.45q13,0,16.84-5.5a18.44,18.44,0,0,0,3.22-11q0-8.47-5.43-12.3a21.72,21.72,0,0,0-12.84-3.82H667.26v75.23a2.46,2.46,0,0,1-2.39,2.39h-1.2a2.3,2.3,0,0,1-1.67-.72,2.33,2.33,0,0,1-.71-1.67V207.19c0-2.07.35-3.46,1.07-4.18S664.47,201.94,666.54,201.94Z" style="fill:#1d1d1b"/><path d="M724,201.94h1.07a2.25,2.25,0,0,1,1.73.71,2.41,2.41,0,0,1,.66,1.68v78.81a2.4,2.4,0,0,1-.66,1.67,2.23,2.23,0,0,1-1.73.72H724a2.3,2.3,0,0,1-1.68-.72,2.33,2.33,0,0,1-.71-1.67V204.33a2.42,2.42,0,0,1,2.39-2.39Zm8.24,36.66H763a2.42,2.42,0,0,1,2.39,2.39v1.19a2.44,2.44,0,0,1-2.39,2.39h-30.8a2.44,2.44,0,0,1-2.39-2.39V241a2.42,2.42,0,0,1,2.39-2.39ZM770,201.94H771a2.28,2.28,0,0,1,1.74.71,2.44,2.44,0,0,1,.65,1.68v78.81a2.44,2.44,0,0,1-.65,1.67,2.25,2.25,0,0,1-1.74.72H770a2.46,2.46,0,0,1-2.39-2.39V204.33a2.44,2.44,0,0,1,2.39-2.39Z" style="fill:#1d1d1b"/><path d="M786.19,201.94h53a2.27,2.27,0,0,1,1.73.71,2.41,2.41,0,0,1,.66,1.68v1.31c0,1.43-.8,2.15-2.39,2.15h-53c-1.59,0-2.39-.72-2.39-2.15v-1.31a2.44,2.44,0,0,1,2.39-2.39ZM812,211h1.2c1.59,0,2.38.76,2.38,2.27v69.86a2.44,2.44,0,0,1-.65,1.67,2.24,2.24,0,0,1-1.73.72H812a2.23,2.23,0,0,1-1.73-.72,2.4,2.4,0,0,1-.66-1.67V213.28C809.59,211.77,810.39,211,812,211Z" style="fill:#1d1d1b"/><path d="M874.07,205a4.4,4.4,0,0,1,4.6-3.22,4.61,4.61,0,0,1,4.72,3.34l27.46,77.14a2.66,2.66,0,0,1,.12.84,2.12,2.12,0,0,1-2.39,2.39h-1.43a2.37,2.37,0,0,1-2.27-1.56l-26-74.15L852.7,284a2.37,2.37,0,0,1-2.27,1.56H849a2.11,2.11,0,0,1-2.39-2.39,2.66,2.66,0,0,1,.12-.84Zm-5.61,43.71h20.66a2.42,2.42,0,0,1,1.67.65,2.24,2.24,0,0,1,.72,1.73v1.08a2.23,2.23,0,0,1-.72,1.73,2.38,2.38,0,0,1-1.67.66H868.46c-1.51,0-2.27-.8-2.27-2.39v-1.08C866.19,249.54,867,248.75,868.46,248.75Z" style="fill:#1d1d1b"/><path d="M925.18,201.94h1.2a2.43,2.43,0,0,1,2.38,2.39v75.34h39.89c1.51,0,2.26.8,2.26,2.39v1.08a2.44,2.44,0,0,1-.65,1.67,2.11,2.11,0,0,1-1.61.72h-41q-4.91,0-4.9-5.14V204.33a2.44,2.44,0,0,1,2.39-2.39Z" style="fill:#1d1d1b"/><path d="M1042.32,201.58a4.62,4.62,0,0,1,4.78,5.13v76.43a2.4,2.4,0,0,1-.66,1.67,2.23,2.23,0,0,1-1.73.72h-1.07a2.25,2.25,0,0,1-1.74-.72,2.44,2.44,0,0,1-.65-1.67v-71l-20.78,51.34a5.18,5.18,0,0,1-4.3,3.47,5,5,0,0,1-4.89-3.35l-22-51.94v71.53a2.34,2.34,0,0,1-.72,1.67,2.3,2.3,0,0,1-1.67.72h-1.2a2.09,2.09,0,0,1-1.61-.72,2.4,2.4,0,0,1-.66-1.67V206.71c0-3.42,1.56-5.13,4.66-5.13q3.23,0,4.78,3.58l22.92,54.09,21.74-54.09Q1039.22,201.58,1042.32,201.58Z" style="fill:#1d1d1b"/><path d="M1078.39,204.74a30.7,30.7,0,0,1,7.52-2.32,44.89,44.89,0,0,1,6.63-.48,43.44,43.44,0,0,1,6.74.53,30.84,30.84,0,0,1,7.58,2.45,25.22,25.22,0,0,1,7.35,5,24,24,0,0,1,5.25,8.59,35.34,35.34,0,0,1,2.15,12.84v24.24a36.78,36.78,0,0,1-2.21,13.26,24.46,24.46,0,0,1-5.37,8.83,25.48,25.48,0,0,1-7.35,5,34.15,34.15,0,0,1-14.09,3A30.11,30.11,0,0,1,1079.4,283a31.23,31.23,0,0,1-8.54-5.73,24.55,24.55,0,0,1-5.25-8.78,36.46,36.46,0,0,1-2.15-13V231.31a35.58,35.58,0,0,1,2.21-13.13,23.91,23.91,0,0,1,5.31-8.6A24.7,24.7,0,0,1,1078.39,204.74Zm25.37,5.38a24.86,24.86,0,0,0-6-1.91,32.44,32.44,0,0,0-5.25-.42,33.59,33.59,0,0,0-5.32.42,24.67,24.67,0,0,0-6,1.91,19.59,19.59,0,0,0-5.91,3.94,19.11,19.11,0,0,0-4.24,7,30.38,30.38,0,0,0-1.73,10.69v23.4a30.84,30.84,0,0,0,1.73,10.75,19.67,19.67,0,0,0,4.3,7.22,20.42,20.42,0,0,0,5.91,4.13,25.3,25.3,0,0,0,6,2,30.29,30.29,0,0,0,10.63,0,25.3,25.3,0,0,0,6-2,19.75,19.75,0,0,0,5.85-4.13,20.32,20.32,0,0,0,4.24-7.22,30.84,30.84,0,0,0,1.73-10.75v-23.4A29.45,29.45,0,0,0,1114,221.1a17.81,17.81,0,0,0-10.21-11Z" style="fill:#1d1d1b"/><path d="M1140.12,201.94h1.2a2.43,2.43,0,0,1,2.38,2.39v75.34h39.89c1.51,0,2.26.8,2.26,2.39v1.08a2.44,2.44,0,0,1-.65,1.67,2.11,2.11,0,0,1-1.61.72h-41q-4.91,0-4.9-5.14V204.33a2.44,2.44,0,0,1,2.39-2.39Z" style="fill:#1d1d1b"/><path d="M1213.91,204.74a31,31,0,0,1,7.52-2.32,45,45,0,0,1,6.63-.48,43.47,43.47,0,0,1,6.75.53,30.84,30.84,0,0,1,7.58,2.45,25.22,25.22,0,0,1,7.35,5,24,24,0,0,1,5.25,8.59,35.55,35.55,0,0,1,2.15,12.84v24.24a36.78,36.78,0,0,1-2.21,13.26,24.46,24.46,0,0,1-5.37,8.83,25.48,25.48,0,0,1-7.35,5,34.18,34.18,0,0,1-14.09,3,30.11,30.11,0,0,1-13.19-2.63,31.07,31.07,0,0,1-8.54-5.73,24.7,24.7,0,0,1-5.26-8.78,36.46,36.46,0,0,1-2.14-13V231.31a35.58,35.58,0,0,1,2.21-13.13,23.91,23.91,0,0,1,5.31-8.6A24.77,24.77,0,0,1,1213.91,204.74Zm25.38,5.38a24.86,24.86,0,0,0-6-1.91,32.56,32.56,0,0,0-5.26-.42,33.56,33.56,0,0,0-5.31.42,24.67,24.67,0,0,0-6,1.91,19.59,19.59,0,0,0-5.91,3.94,19.11,19.11,0,0,0-4.24,7,30.15,30.15,0,0,0-1.73,10.69v23.4a30.61,30.61,0,0,0,1.73,10.75,19.67,19.67,0,0,0,4.3,7.22,20.42,20.42,0,0,0,5.91,4.13,25.3,25.3,0,0,0,6,2,30.29,30.29,0,0,0,10.63,0,25.3,25.3,0,0,0,6-2,19.75,19.75,0,0,0,5.85-4.13,20.32,20.32,0,0,0,4.24-7.22,30.84,30.84,0,0,0,1.73-10.75v-23.4a29.45,29.45,0,0,0-1.79-10.69,17.81,17.81,0,0,0-10.21-11Z" style="fill:#1d1d1b"/><path d="M1286.93,204.27a29.56,29.56,0,0,1,7.53-2.51,39.7,39.7,0,0,1,6.44-.54,38.64,38.64,0,0,1,6.39.54,29.54,29.54,0,0,1,7.11,2.27,27.83,27.83,0,0,1,7,4.42,24.08,24.08,0,0,1,5.5,7.4,30.53,30.53,0,0,1,3,10.93c0,1.75-.8,2.62-2.39,2.62h-1.07a2.15,2.15,0,0,1-2.39-2.15,26.59,26.59,0,0,0-2.51-8.83,17.56,17.56,0,0,0-4.41-5.86,26.16,26.16,0,0,0-14.63-5.37,39.82,39.82,0,0,0-6.81.48,25.3,25.3,0,0,0-6,2,19.59,19.59,0,0,0-5.85,4.12,20.36,20.36,0,0,0-4.24,7.22,30.65,30.65,0,0,0-1.73,10.75v23.4a29.9,29.9,0,0,0,1.79,10.75,20.82,20.82,0,0,0,4.3,7.22,19.4,19.4,0,0,0,5.91,4.13,26.52,26.52,0,0,0,6,2,29.12,29.12,0,0,0,5.25.47,32.25,32.25,0,0,0,5.26-.42,24.15,24.15,0,0,0,6-1.9,19.84,19.84,0,0,0,5.85-4,19.41,19.41,0,0,0,4.24-6.86,28.11,28.11,0,0,0,1.73-10.27v-6.93h-19.7a2.1,2.1,0,0,1-2.39-2.38V246a2.38,2.38,0,0,1,.66-1.67,2.21,2.21,0,0,1,1.73-.72h20.77q4.79,0,4.78,5.14v7.76a34.64,34.64,0,0,1-2.21,12.84,21.81,21.81,0,0,1-12.6,13.31,34.7,34.7,0,0,1-14.09,3A29.81,29.81,0,0,1,1288,283a32.11,32.11,0,0,1-8.6-5.73,24,24,0,0,1-5.31-8.78,36.24,36.24,0,0,1-2.15-13V231.31a36.54,36.54,0,0,1,2.21-13.25,24,24,0,0,1,5.37-8.78A27,27,0,0,1,1286.93,204.27Z" style="fill:#1d1d1b"/><path d="M1349.56,201.94h1.08a2.33,2.33,0,0,1,1.67.71,2.3,2.3,0,0,1,.72,1.68v78.81a2.46,2.46,0,0,1-2.39,2.39h-1.08a2.24,2.24,0,0,1-1.73-.72,2.39,2.39,0,0,1-.65-1.67V204.33a2.4,2.4,0,0,1,.65-1.68A2.27,2.27,0,0,1,1349.56,201.94Z" style="fill:#1d1d1b"/><path d="M1392.43,201.76a41.91,41.91,0,0,1,6.69-.54,37.82,37.82,0,0,1,6.69.6,29.41,29.41,0,0,1,7.52,2.63,27.46,27.46,0,0,1,7.34,5.13,24,24,0,0,1,5.31,8.78,36.22,36.22,0,0,1,2.15,12.95v24.24q0,11.82-5.49,19.59l6.45,7.4a2.94,2.94,0,0,1,.72,1.67c0,.88-.6,1.32-1.79,1.32h-3.11a2.52,2.52,0,0,1-1.79-.84l-4.54-5.25q-7.75,6.19-19.46,6.21a30.05,30.05,0,0,1-13.19-2.63,30.92,30.92,0,0,1-8.54-5.73,24.56,24.56,0,0,1-5.26-8.78,36.46,36.46,0,0,1-2.15-13V231.31a36.76,36.76,0,0,1,2.21-13.25,25.12,25.12,0,0,1,5.31-8.84,24.42,24.42,0,0,1,7.35-5A30.42,30.42,0,0,1,1392.43,201.76Zm17.91,7.94a25.53,25.53,0,0,0-6-2,29.46,29.46,0,0,0-5.31-.48,30.46,30.46,0,0,0-5.37.48,25,25,0,0,0-6,2,19.76,19.76,0,0,0-5.86,4.12,20.35,20.35,0,0,0-4.23,7.22,30.64,30.64,0,0,0-1.74,10.75v23.4a30.6,30.6,0,0,0,1.74,10.75,19.66,19.66,0,0,0,4.29,7.22,20.6,20.6,0,0,0,5.92,4.13,26.5,26.5,0,0,0,11.34,2.5q9.44,0,15.4-5l-13.37-15.88a4,4,0,0,1-1.31-2.39c0-.8.87-1.2,2.62-1.2h1.91a2.61,2.61,0,0,1,1.91.84l12.18,14.21q3.82-6.09,3.82-15.17v-23.4a29.73,29.73,0,0,0-1.79-10.75,20.86,20.86,0,0,0-4.3-7.22A19.59,19.59,0,0,0,1410.34,209.7Z" style="fill:#1d1d1b"/><path d="M1492,201.94h1.19a2.42,2.42,0,0,1,2.39,2.39v51.22a35.51,35.51,0,0,1-2.86,14.87,22.08,22.08,0,0,1-7.41,9.37q-8.36,5.86-17.07,5.86h-1.44q-8.71,0-17.31-5.86a21.69,21.69,0,0,1-7.35-9.37,36.17,36.17,0,0,1-2.8-14.87V204.33a2.41,2.41,0,0,1,.66-1.68,2.24,2.24,0,0,1,1.73-.71h1.19a2.25,2.25,0,0,1,1.73.71,2.41,2.41,0,0,1,.66,1.68v51.22a29.56,29.56,0,0,0,2.27,12.12,17.44,17.44,0,0,0,6,7.59,25.52,25.52,0,0,0,13.49,4.53h1.08a25.34,25.34,0,0,0,13.37-4.65,17,17,0,0,0,5.85-7.47,29.56,29.56,0,0,0,2.27-12.12V204.33a2.41,2.41,0,0,1,.66-1.68A2.24,2.24,0,0,1,1492,201.94Z" style="fill:#1d1d1b"/><path d="M1515.78,201.94h41.68a2.33,2.33,0,0,1,1.67.71,2.29,2.29,0,0,1,.71,1.68v1.07a2.21,2.21,0,0,1-.71,1.73,2.4,2.4,0,0,1-1.67.66H1517v71.88h40.48a2.4,2.4,0,0,1,1.67.66,2.23,2.23,0,0,1,.71,1.73v1.08a2.44,2.44,0,0,1-2.38,2.39h-41.8c-1.91,0-3.16-.42-3.76-1.26a6,6,0,0,1-.89-3.52V206.6a4,4,0,0,1,4.77-4.66Zm8.36,37.25h25.56a2.24,2.24,0,0,1,1.73.72,2.44,2.44,0,0,1,.65,1.67v1.07a2.11,2.11,0,0,1-2.38,2.4h-25.56a2.12,2.12,0,0,1-2.39-2.4v-1.07a2.4,2.4,0,0,1,.66-1.67A2.23,2.23,0,0,1,1524.14,239.19Z" style="fill:#1d1d1b"/><path d="M592.75,329.16q1.49-4.47,6.37-4.47a6.38,6.38,0,0,1,6.54,4.63l38.09,107a3.7,3.7,0,0,1,.16,1.16q0,3.32-3.31,3.31h-2a3.28,3.28,0,0,1-3.14-2.15l-36.1-102.83L563.11,438.61a3.28,3.28,0,0,1-3.15,2.15h-2q-3.32,0-3.32-3.31a3.68,3.68,0,0,1,.17-1.16ZM585,389.76h28.65a3.36,3.36,0,0,1,2.32.91,3.12,3.12,0,0,1,1,2.41v1.49a3.11,3.11,0,0,1-1,2.4,3.35,3.35,0,0,1-2.32.9H585q-3.13,0-3.14-3.3v-1.49Q581.82,389.77,585,389.76Z" style="fill:#1c6684"/><path d="M662.49,341.41a5.62,5.62,0,0,1,5,2.86q23.06,38.22,42.39,72.73V344a2.37,2.37,0,0,1,.66-1.67,2.24,2.24,0,0,1,1.73-.72h1.2a2.24,2.24,0,0,1,1.73.72,2.4,2.4,0,0,1,.65,1.67v76.78a4.28,4.28,0,0,1-1.37,3.52,5.9,5.9,0,0,1-3.88,1.13,4.87,4.87,0,0,1-4.18-2.62L664,350.13v72.72a2.46,2.46,0,0,1-2.39,2.39h-1.31a2.08,2.08,0,0,1-1.61-.72,2.38,2.38,0,0,1-.66-1.67V346.31Q658.07,341.41,662.49,341.41Z" style="fill:#1d1d1b"/><path d="M728.28,341.65h53a2.24,2.24,0,0,1,1.73.72,2.37,2.37,0,0,1,.66,1.67v1.31c0,1.43-.8,2.15-2.39,2.15h-53c-1.59,0-2.39-.72-2.39-2.15V344a2.46,2.46,0,0,1,2.39-2.39Zm25.79,9.07h1.2c1.59,0,2.39.76,2.39,2.27v69.86a2.38,2.38,0,0,1-.66,1.67,2.24,2.24,0,0,1-1.73.72h-1.2a2.24,2.24,0,0,1-1.73-.72,2.37,2.37,0,0,1-.65-1.67V353C751.69,351.48,752.48,350.72,754.07,350.72Z" style="fill:#1d1d1b"/><path d="M807.69,344.45a30.83,30.83,0,0,1,7.52-2.32,45,45,0,0,1,6.63-.48,42.29,42.29,0,0,1,6.75.54,30.27,30.27,0,0,1,7.58,2.45,25.09,25.09,0,0,1,7.34,4.95,23.91,23.91,0,0,1,5.25,8.6A35.24,35.24,0,0,1,850.91,371v24.24a36.78,36.78,0,0,1-2.2,13.26,24.75,24.75,0,0,1-5.38,8.84,25.54,25.54,0,0,1-7.34,5,34.21,34.21,0,0,1-14.09,3,30.05,30.05,0,0,1-13.19-2.63,30.92,30.92,0,0,1-8.54-5.73,24.7,24.7,0,0,1-5.26-8.78,36.46,36.46,0,0,1-2.15-13V371A35.79,35.79,0,0,1,795,357.89a23.91,23.91,0,0,1,5.31-8.6A24.7,24.7,0,0,1,807.69,344.45Zm25.37,5.38a25.17,25.17,0,0,0-6-1.91,32.44,32.44,0,0,0-5.25-.42,33.78,33.78,0,0,0-5.32.42,25.11,25.11,0,0,0-6,1.91,19.84,19.84,0,0,0-5.91,3.94,19.1,19.1,0,0,0-4.23,7,30.14,30.14,0,0,0-1.74,10.69v23.41a30.59,30.59,0,0,0,1.74,10.74,19.79,19.79,0,0,0,4.29,7.23,20.77,20.77,0,0,0,5.92,4.12,25,25,0,0,0,6,2,29.61,29.61,0,0,0,10.62,0,25.15,25.15,0,0,0,6-2,19.77,19.77,0,0,0,5.85-4.12,20.17,20.17,0,0,0,4.24-7.23,30.59,30.59,0,0,0,1.73-10.74V371.5a29.24,29.24,0,0,0-1.79-10.69,17.81,17.81,0,0,0-10.21-11Z" style="fill:#1d1d1b"/><path d="M871.57,341.41a5.64,5.64,0,0,1,5,2.86q23,38.22,42.39,72.73V344a2.37,2.37,0,0,1,.66-1.67,2.21,2.21,0,0,1,1.73-.72h1.19a2.26,2.26,0,0,1,1.74.72A2.4,2.4,0,0,1,925,344v76.78a4.31,4.31,0,0,1-1.37,3.52,5.92,5.92,0,0,1-3.88,1.13,4.86,4.86,0,0,1-4.18-2.62l-42.39-72.72v72.72a2.46,2.46,0,0,1-2.39,2.39h-1.31a2.11,2.11,0,0,1-1.62-.72,2.37,2.37,0,0,1-.65-1.67V346.31Q867.16,341.41,871.57,341.41Z" style="fill:#1d1d1b"/><path d="M981.19,341.65h1.31a2,2,0,0,1,1.91.89,3.37,3.37,0,0,1,.48,1.5,2.26,2.26,0,0,1-.36,1.19v-.12l-20.18,36.78a15.74,15.74,0,0,1-1.31,1.79v39.17a2.44,2.44,0,0,1-2.39,2.39h-1.19a2.46,2.46,0,0,1-2.39-2.39V383.56a6.36,6.36,0,0,1-1.07-1.43l-21.74-36.9a2.26,2.26,0,0,1-.36-1.19,3.37,3.37,0,0,1,.48-1.5,2,2,0,0,1,1.91-.89h1.44a2.49,2.49,0,0,1,2,1.07l20.3,34.87,19.23-35.22A2.14,2.14,0,0,1,981.19,341.65Z" style="fill:#1d1d1b"/></svg>