<svg id="ca59e79f-3e9b-410f-bc49-6dfe7de986de" data-name="Calque 1" xmlns="http://www.w3.org/2000/svg" viewBox="0 0 159 47"><title>logo-EPTB</title><path d="M100.12,2,98.87.15a19.14,19.14,0,0,1-5.6,3,20.38,20.38,0,0,1-6.57,1,20.37,20.37,0,0,1-6.56-1A18.79,18.79,0,0,1,75.26.62S74.8.23,74.74.28s-.52.34-.52.34a19,19,0,0,1-4.88,2.55,20.38,20.38,0,0,1-6.57,1,20.37,20.37,0,0,1-6.56-1A18.79,18.79,0,0,1,51.33.62s-.46-.39-.52-.34-.52.34-.52.34a19,19,0,0,1-4.88,2.55,20.38,20.38,0,0,1-6.57,1,20.37,20.37,0,0,1-6.56-1A19,19,0,0,1,27.39.62s-.45-.39-.51-.34-.52.34-.52.34a19,19,0,0,1-4.88,2.55,20.38,20.38,0,0,1-6.57,1,20.47,20.47,0,0,1-6.57-1,19.09,19.09,0,0,1-5.59-3L1.5,2A21.94,21.94,0,0,0,7.55,5.46a20.54,20.54,0,0,0,7.36,1.31,20.46,20.46,0,0,0,7.36-1.31A22.81,22.81,0,0,0,26.88,3a22.55,22.55,0,0,0,4.61,2.48,20.44,20.44,0,0,0,7.35,1.31A20.46,20.46,0,0,0,46.2,5.46,22.81,22.81,0,0,0,50.81,3a22.55,22.55,0,0,0,4.61,2.48,20.44,20.44,0,0,0,7.35,1.31,20.46,20.46,0,0,0,7.36-1.31A22.81,22.81,0,0,0,74.74,3a22.81,22.81,0,0,0,4.61,2.48A20.44,20.44,0,0,0,86.7,6.77a20.46,20.46,0,0,0,7.36-1.31A22,22,0,0,0,100.12,2" style="fill:#5c5c5b"/><path d="M20.93,42.11v3.94H5.08V21H9.64V42.11Z" style="fill:#42803b"/><path d="M23.5,36.68a11.83,11.83,0,0,1,.74-4.38,9.24,9.24,0,0,1,2-3.13A8.3,8.3,0,0,1,29,27.29a8.79,8.79,0,0,1,3.26-.63,7.81,7.81,0,0,1,6.09,2.42q2.19,2.43,2.19,7.24c0,.24,0,.51,0,.81s0,.58,0,.82H28a4.94,4.94,0,0,0,1.61,3.52,6.11,6.11,0,0,0,4.14,1.25,13.16,13.16,0,0,0,2.91-.29,12.54,12.54,0,0,0,2.08-.61l.58,3.58a6.47,6.47,0,0,1-1,.38q-.63.19-1.44.36c-.55.11-1.13.2-1.76.27a17,17,0,0,1-1.91.11,11.66,11.66,0,0,1-4.34-.74,8.1,8.1,0,0,1-3-2.06,8.45,8.45,0,0,1-1.78-3.12A12.85,12.85,0,0,1,23.5,36.68Zm12.69-2A5.68,5.68,0,0,0,35.94,33a4.31,4.31,0,0,0-.74-1.41,3.56,3.56,0,0,0-1.2-.94,3.79,3.79,0,0,0-1.68-.35,3.83,3.83,0,0,0-3.05,1.38,4.5,4.5,0,0,0-.82,1.41,8.26,8.26,0,0,0-.4,1.63Z" style="fill:#42803b"/><path d="M50.3,42.9a5.86,5.86,0,0,0,2.53-.41,1.49,1.49,0,0,0,.8-1.43,1.87,1.87,0,0,0-.85-1.56A12.79,12.79,0,0,0,50,38.16a21.35,21.35,0,0,1-2.18-.92,7,7,0,0,1-1.72-1.14,4.6,4.6,0,0,1-1.14-1.57,5.46,5.46,0,0,1-.42-2.26,4.93,4.93,0,0,1,1.92-4.11,8.24,8.24,0,0,1,5.21-1.5,17.8,17.8,0,0,1,5.46.9l-.8,3.55a10.19,10.19,0,0,0-1.84-.6,11.23,11.23,0,0,0-2.6-.27,4.52,4.52,0,0,0-2.17.45,1.5,1.5,0,0,0-.84,1.4,2,2,0,0,0,.17.83,1.72,1.72,0,0,0,.56.67,5.4,5.4,0,0,0,1.05.61,13.16,13.16,0,0,0,1.59.63A27.28,27.28,0,0,1,54.86,36a7.38,7.38,0,0,1,1.79,1.27,4.39,4.39,0,0,1,1,1.61A6.36,6.36,0,0,1,58,41a4.67,4.67,0,0,1-2,4.11,10.07,10.07,0,0,1-5.74,1.39,15.51,15.51,0,0,1-4-.42,19.2,19.2,0,0,1-2.14-.67l.76-3.65a18.46,18.46,0,0,0,2.34.76A12,12,0,0,0,50.3,42.9Z" style="fill:#42803b"/><path d="M71.46,46.05V21h16.1v3.87H76V31H86.29v3.79H76v7.35h12.4v3.87Z" style="fill:#42803b"/><path d="M100.11,20.73q5.46,0,8.37,2c1.94,1.32,2.91,3.4,2.91,6.22a8.58,8.58,0,0,1-.77,3.78,6.66,6.66,0,0,1-2.26,2.57,10.53,10.53,0,0,1-3.62,1.46,22.41,22.41,0,0,1-4.89.47H97.58v8.83H93V21.34a23.3,23.3,0,0,1,3.53-.49C97.83,20.77,99,20.73,100.11,20.73Zm.32,3.94c-1.15,0-2.11,0-2.85.11v8.54h2.2a11.12,11.12,0,0,0,5.07-.93,3.55,3.55,0,0,0,1.77-3.49,4.18,4.18,0,0,0-.47-2.06,3.38,3.38,0,0,0-1.3-1.3,6.18,6.18,0,0,0-2-.67A14.55,14.55,0,0,0,100.43,24.67Z" style="fill:#42803b"/><path d="M133.39,21v3.94h-7.71V46.05h-4.59V24.92h-7.71V21Z" style="fill:#42803b"/><path d="M144.78,46.34c-1.33,0-2.66,0-4-.13a18.71,18.71,0,0,1-3.55-.52V21.34l1.7-.27c.6-.08,1.22-.15,1.85-.2s1.24-.08,1.86-.11l1.75,0a24.53,24.53,0,0,1,4.24.34A10.84,10.84,0,0,1,152,22.21a5.91,5.91,0,0,1,2.22,2.1,6.08,6.08,0,0,1,.8,3.22,5.4,5.4,0,0,1-.85,3,6,6,0,0,1-2.37,2,6.63,6.63,0,0,1,3.36,2.24,6.19,6.19,0,0,1,1.09,3.77,6.56,6.56,0,0,1-2.82,5.8Q150.59,46.33,144.78,46.34Zm-3.07-15.16h3.22a9.32,9.32,0,0,0,4.08-.74,2.71,2.71,0,0,0,1.49-2.66A2.66,2.66,0,0,0,149,25.21a9.17,9.17,0,0,0-4-.76c-.7,0-1.32,0-1.86,0s-1,.06-1.39.11Zm0,3.58V42.4c.5,0,1,.08,1.62.1s1.11,0,1.6,0a17.88,17.88,0,0,0,2.62-.18,6.91,6.91,0,0,0,2.1-.63,3.82,3.82,0,0,0,1.41-1.22,3.33,3.33,0,0,0,.52-1.95,3.09,3.09,0,0,0-1.55-3,9.32,9.32,0,0,0-4.31-.83Z" style="fill:#42803b"/></svg>