<svg id="4b2cd17c-be9a-4de0-bf30-e1e0532c1ac6" data-name="Calque 1" xmlns="http://www.w3.org/2000/svg" viewBox="0 0 407 53"><title>logo bassinversant</title><path d="M32.67,31.57a23.07,23.07,0,0,1-.74,6.06,13.94,13.94,0,0,1-2.12,4.58,9.48,9.48,0,0,1-3.42,2.92,10.08,10.08,0,0,1-4.6,1,11.23,11.23,0,0,1-2.38-.24,8.13,8.13,0,0,1-2.11-.78,11.47,11.47,0,0,1-2-1.36,18.53,18.53,0,0,1-2-2v2.75a.86.86,0,0,1-.15.52,1.28,1.28,0,0,1-.51.36,3.44,3.44,0,0,1-.95.19q-.6.06-1.44.06a14.49,14.49,0,0,1-1.46-.06,3.44,3.44,0,0,1-.94-.19,1.08,1.08,0,0,1-.49-.36.86.86,0,0,1-.15-.52V7.3a.85.85,0,0,1,.17-.51A1.38,1.38,0,0,1,8,6.4a5.14,5.14,0,0,1,1.09-.24,15.88,15.88,0,0,1,1.72-.08,16.08,16.08,0,0,1,1.73.08,5.29,5.29,0,0,1,1.09.24,1.33,1.33,0,0,1,.58.39.85.85,0,0,1,.17.51v14a14.78,14.78,0,0,1,1.93-1.64,11.23,11.23,0,0,1,1.92-1.12,8.4,8.4,0,0,1,2-.64,11.38,11.38,0,0,1,2.15-.2,9.42,9.42,0,0,1,4.76,1.12,9.19,9.19,0,0,1,3.18,3,13.47,13.47,0,0,1,1.8,4.43A24.28,24.28,0,0,1,32.67,31.57Zm-7.4.51A19.73,19.73,0,0,0,25,29a8.74,8.74,0,0,0-.83-2.66,5.25,5.25,0,0,0-1.54-1.86,4,4,0,0,0-2.4-.69,5.08,5.08,0,0,0-1.39.2,5.13,5.13,0,0,0-1.4.68A9.83,9.83,0,0,0,16,25.87a18.82,18.82,0,0,0-1.62,1.9v8.38a14.94,14.94,0,0,0,2.88,2.94,4.77,4.77,0,0,0,2.87,1,3.86,3.86,0,0,0,2.35-.71,5.63,5.63,0,0,0,1.6-1.84A8.38,8.38,0,0,0,25,35,14.79,14.79,0,0,0,25.27,32.08Z" style="fill:#00b0f0"/><path d="M59.88,44.62a.77.77,0,0,1-.28.63,2,2,0,0,1-.89.32,11.64,11.64,0,0,1-1.8.1,11.83,11.83,0,0,1-1.86-.1,1.66,1.66,0,0,1-.82-.32.84.84,0,0,1-.24-.63v-2a11.53,11.53,0,0,1-3.55,2.61,10.37,10.37,0,0,1-4.43.93,12.35,12.35,0,0,1-3.7-.52,8.36,8.36,0,0,1-2.92-1.56,7,7,0,0,1-1.91-2.56,8.78,8.78,0,0,1-.68-3.57,8.06,8.06,0,0,1,.87-3.84,7,7,0,0,1,2.57-2.69,12.84,12.84,0,0,1,4.26-1.57,30.51,30.51,0,0,1,5.92-.51h2.47V27.8a8,8,0,0,0-.24-2.08,3.46,3.46,0,0,0-.8-1.49,3.22,3.22,0,0,0-1.47-.88,8.15,8.15,0,0,0-2.28-.28,11.43,11.43,0,0,0-3.18.4,17.31,17.31,0,0,0-2.48.87c-.72.33-1.32.62-1.8.88a2.55,2.55,0,0,1-1.18.4.87.87,0,0,1-.55-.2,1.48,1.48,0,0,1-.4-.57,4.14,4.14,0,0,1-.24-.9,8.68,8.68,0,0,1-.08-1.19,5.61,5.61,0,0,1,.14-1.39,2,2,0,0,1,.54-.92,5.6,5.6,0,0,1,1.39-.91,17,17,0,0,1,2.32-.92,22.05,22.05,0,0,1,2.9-.69,21.34,21.34,0,0,1,8.33.31A8.59,8.59,0,0,1,57.28,20a7,7,0,0,1,2,3.1,14.6,14.6,0,0,1,.62,4.5Zm-7-10.82H50.17a14.62,14.62,0,0,0-3,.26,5.65,5.65,0,0,0-2,.76,3.15,3.15,0,0,0-1.12,1.24,3.77,3.77,0,0,0-.35,1.65,3.17,3.17,0,0,0,1,2.49,4,4,0,0,0,2.79.91,5.21,5.21,0,0,0,2.76-.76,11.58,11.58,0,0,0,2.57-2.24Z" style="fill:#00b0f0"/><path d="M84.78,37.4A8.5,8.5,0,0,1,84,41.2a7.56,7.56,0,0,1-2.28,2.74,10.22,10.22,0,0,1-3.48,1.66,16.45,16.45,0,0,1-4.37.55,16.79,16.79,0,0,1-2.7-.21,15.76,15.76,0,0,1-2.31-.54,13.84,13.84,0,0,1-1.7-.66,4.34,4.34,0,0,1-1-.64,1.93,1.93,0,0,1-.48-.94,7.93,7.93,0,0,1-.17-1.88A11.48,11.48,0,0,1,65.55,40a2.84,2.84,0,0,1,.17-.79.75.75,0,0,1,.28-.4.87.87,0,0,1,.42-.1,2.06,2.06,0,0,1,.92.36c.41.24.92.49,1.52.78A15.7,15.7,0,0,0,71,40.6,9.15,9.15,0,0,0,73.7,41a6.89,6.89,0,0,0,1.72-.2,4.17,4.17,0,0,0,1.3-.57,2.25,2.25,0,0,0,.83-.93,2.86,2.86,0,0,0,.29-1.3,2.15,2.15,0,0,0-.53-1.46,4.59,4.59,0,0,0-1.38-1.06,14.41,14.41,0,0,0-2-.85c-.73-.27-1.47-.56-2.24-.88a19.29,19.29,0,0,1-2.23-1.11,8.29,8.29,0,0,1-2-1.53,6.82,6.82,0,0,1-1.38-2.18,8,8,0,0,1-.53-3,7.8,7.8,0,0,1,.71-3.33,7.12,7.12,0,0,1,2-2.59,9.55,9.55,0,0,1,3.24-1.67,14.35,14.35,0,0,1,4.29-.6,16.09,16.09,0,0,1,4.33.6,9.15,9.15,0,0,1,1.53.55,5.25,5.25,0,0,1,.9.51,1.44,1.44,0,0,1,.38.42,2,2,0,0,1,.17.51c0,.2.07.45.1.74s0,.66,0,1.09,0,.92,0,1.25a3.71,3.71,0,0,1-.14.76.68.68,0,0,1-.27.38.77.77,0,0,1-.4.1,1.92,1.92,0,0,1-.79-.3c-.36-.19-.81-.41-1.35-.63A15.57,15.57,0,0,0,78.5,23a8.9,8.9,0,0,0-2.42-.3,6.31,6.31,0,0,0-1.67.2,3.07,3.07,0,0,0-1.16.57,2.34,2.34,0,0,0-.68.86,2.56,2.56,0,0,0-.23,1.06,2.13,2.13,0,0,0,.54,1.48,5,5,0,0,0,1.42,1,14.33,14.33,0,0,0,2,.85c.75.27,1.5.55,2.27.87a20.44,20.44,0,0,1,2.27,1.09,8.25,8.25,0,0,1,2,1.53,6.93,6.93,0,0,1,1.42,2.16A7.57,7.57,0,0,1,84.78,37.4Z" style="fill:#00b0f0"/><path d="M107.91,37.4a8.63,8.63,0,0,1-.8,3.8,7.56,7.56,0,0,1-2.28,2.74,10.36,10.36,0,0,1-3.49,1.66,16.32,16.32,0,0,1-4.36.55,16.79,16.79,0,0,1-2.7-.21A15.76,15.76,0,0,1,92,45.4a13.23,13.23,0,0,1-1.7-.66,4.34,4.34,0,0,1-1-.64,1.93,1.93,0,0,1-.48-.94,7.43,7.43,0,0,1-.17-1.88c0-.55,0-1,.05-1.32a3.8,3.8,0,0,1,.17-.79.76.76,0,0,1,.29-.4.87.87,0,0,1,.42-.1,2.06,2.06,0,0,1,.92.36c.41.24.91.49,1.52.78a15.2,15.2,0,0,0,2.11.79,9.15,9.15,0,0,0,2.73.37,6.8,6.8,0,0,0,1.71-.2,4.23,4.23,0,0,0,1.31-.57,2.39,2.39,0,0,0,.83-.93A2.86,2.86,0,0,0,101,38a2.15,2.15,0,0,0-.53-1.46,4.52,4.52,0,0,0-1.39-1.06,13.73,13.73,0,0,0-2-.85c-.73-.27-1.47-.56-2.24-.88a20.26,20.26,0,0,1-2.24-1.11,8.45,8.45,0,0,1-1.95-1.53,6.84,6.84,0,0,1-1.39-2.18,8,8,0,0,1-.52-3,7.65,7.65,0,0,1,.71-3.33,7.12,7.12,0,0,1,2-2.59,9.37,9.37,0,0,1,3.24-1.67,14.25,14.25,0,0,1,4.29-.6,15.9,15.9,0,0,1,2.31.17,16.17,16.17,0,0,1,2,.43,9.15,9.15,0,0,1,1.53.55,5.07,5.07,0,0,1,.89.51,1.5,1.5,0,0,1,.39.42,2,2,0,0,1,.17.51c0,.2.07.45.1.74s0,.66,0,1.09,0,.92,0,1.25a3.08,3.08,0,0,1-.15.76.6.6,0,0,1-.27.38.71.71,0,0,1-.39.1,2,2,0,0,1-.8-.3,13.5,13.5,0,0,0-1.34-.63,15.57,15.57,0,0,0-1.87-.64,8.9,8.9,0,0,0-2.42-.3,6.31,6.31,0,0,0-1.67.2,3.07,3.07,0,0,0-1.16.57,2.24,2.24,0,0,0-.68.86,2.56,2.56,0,0,0-.23,1.06A2.13,2.13,0,0,0,96,26.87a5,5,0,0,0,1.42,1,14.33,14.33,0,0,0,2,.85c.75.27,1.5.55,2.27.87A19.49,19.49,0,0,1,104,30.72a8.3,8.3,0,0,1,2,1.53,7.11,7.11,0,0,1,1.42,2.16A7.76,7.76,0,0,1,107.91,37.4Z" style="fill:#00b0f0"/><path d="M120.94,10.72a4,4,0,0,1-.88,3,6.93,6.93,0,0,1-6.5,0,3.89,3.89,0,0,1-.83-2.86,4.1,4.1,0,0,1,.86-3,6.81,6.81,0,0,1,6.5,0A3.86,3.86,0,0,1,120.94,10.72Zm-.54,33.82a.72.72,0,0,1-.17.49,1.26,1.26,0,0,1-.58.36,5.39,5.39,0,0,1-1.09.21,21.29,21.29,0,0,1-3.45,0,5.39,5.39,0,0,1-1.09-.21,1.26,1.26,0,0,1-.58-.36.72.72,0,0,1-.17-.49V19.33a.72.72,0,0,1,.17-.49,1.19,1.19,0,0,1,.58-.37,4.14,4.14,0,0,1,1.09-.24,16.58,16.58,0,0,1,3.45,0,4.14,4.14,0,0,1,1.09.24,1.19,1.19,0,0,1,.58.37.72.72,0,0,1,.17.49Z" style="fill:#00b0f0"/><path d="M151.64,44.54a.77.77,0,0,1-.17.49,1.27,1.27,0,0,1-.57.36,5.12,5.12,0,0,1-1.09.21,16.42,16.42,0,0,1-1.71.07,16.79,16.79,0,0,1-1.74-.07,5.25,5.25,0,0,1-1.09-.21,1.27,1.27,0,0,1-.57-.36.77.77,0,0,1-.17-.49V30.12a12.18,12.18,0,0,0-.27-2.89,5.74,5.74,0,0,0-.78-1.79,3.51,3.51,0,0,0-1.31-1.17,4.18,4.18,0,0,0-1.89-.41,4.71,4.71,0,0,0-2.74,1,15.1,15.1,0,0,0-2.89,2.89v16.8a.77.77,0,0,1-.17.49,1.38,1.38,0,0,1-.58.36,5.7,5.7,0,0,1-1.09.21,21.41,21.41,0,0,1-3.46,0,5.7,5.7,0,0,1-1.09-.21,1.31,1.31,0,0,1-.58-.36.77.77,0,0,1-.17-.49V19.28a.92.92,0,0,1,.14-.5,1.07,1.07,0,0,1,.51-.35,3.93,3.93,0,0,1,1-.22,14.24,14.24,0,0,1,1.46-.07c.6,0,1.1,0,1.5.07a3.26,3.26,0,0,1,.92.22,1,1,0,0,1,.47.35.92.92,0,0,1,.14.5v2.91a16.26,16.26,0,0,1,4.26-3.4,9.7,9.7,0,0,1,4.52-1.13,10,10,0,0,1,4.35.85,7.69,7.69,0,0,1,2.86,2.31,9.46,9.46,0,0,1,1.57,3.41,19.94,19.94,0,0,1,.48,4.7Z" style="fill:#00b0f0"/><path d="M181.06,19.25c0,.09,0,.21,0,.34A4.16,4.16,0,0,1,181,20a5.32,5.32,0,0,1-.11.55c0,.21-.11.44-.18.71l-7.59,22.85a2.37,2.37,0,0,1-.39.78,1.61,1.61,0,0,1-.79.47,6.48,6.48,0,0,1-1.5.22c-.63,0-1.46.06-2.48.06s-1.81,0-2.45-.07a7.09,7.09,0,0,1-1.48-.24,1.55,1.55,0,0,1-.78-.47,2.41,2.41,0,0,1-.39-.75l-7.58-22.85a9.85,9.85,0,0,1-.27-1,5.29,5.29,0,0,1-.12-.65c0-.14,0-.26,0-.37a.84.84,0,0,1,.15-.5,1.15,1.15,0,0,1,.56-.35,4.17,4.17,0,0,1,1.09-.2q.69-.06,1.74-.06c.77,0,1.4,0,1.87.07a6.77,6.77,0,0,1,1.12.2,1.15,1.15,0,0,1,.58.37,2.41,2.41,0,0,1,.28.58L168,37.91l.17.71.17-.71L174,19.36a1.64,1.64,0,0,1,.27-.58,1.19,1.19,0,0,1,.58-.37,6.29,6.29,0,0,1,1.06-.2c.45,0,1-.07,1.75-.07s1.27,0,1.71.06a3.74,3.74,0,0,1,1,.2,1,1,0,0,1,.51.35A.84.84,0,0,1,181.06,19.25Z" style="fill:#7f7f7f"/><path d="M208.05,31.17a2.75,2.75,0,0,1-.58,1.93,2.09,2.09,0,0,1-1.6.62H190.5a10.35,10.35,0,0,0,.38,2.93,5.54,5.54,0,0,0,1.22,2.24,5.26,5.26,0,0,0,2.15,1.4,9.25,9.25,0,0,0,3.16.48,17.66,17.66,0,0,0,3.28-.27,24,24,0,0,0,2.45-.59q1-.33,1.71-.6A3.25,3.25,0,0,1,206,39a.87.87,0,0,1,.42.1.77.77,0,0,1,.29.36,2.63,2.63,0,0,1,.15.72c0,.31,0,.7,0,1.17s0,.77,0,1.07a6.44,6.44,0,0,1-.09.75,1.76,1.76,0,0,1-.17.52,1.59,1.59,0,0,1-.3.41,3.43,3.43,0,0,1-1,.54,14.7,14.7,0,0,1-2.1.66,27.84,27.84,0,0,1-2.91.57,24.44,24.44,0,0,1-3.52.24,18.49,18.49,0,0,1-5.9-.85,10.32,10.32,0,0,1-4.23-2.58,10.64,10.64,0,0,1-2.54-4.36,20.34,20.34,0,0,1-.83-6.17,19.84,19.84,0,0,1,.87-6.08,12.81,12.81,0,0,1,2.55-4.58,11,11,0,0,1,4.07-2.88,15.62,15.62,0,0,1,10.81,0,9.61,9.61,0,0,1,3.7,2.59,10.4,10.4,0,0,1,2.12,3.92,16.84,16.84,0,0,1,.68,4.93Zm-6.91-2a7.28,7.28,0,0,0-1.2-4.71,4.65,4.65,0,0,0-4-1.72,5.16,5.16,0,0,0-2.36.51,4.78,4.78,0,0,0-1.67,1.38,6,6,0,0,0-1,2,9.69,9.69,0,0,0-.41,2.51Z" style="fill:#7f7f7f"/><path d="M230.14,21.63c0,.68,0,1.23,0,1.67a5.94,5.94,0,0,1-.17,1,1.11,1.11,0,0,1-.3.51.77.77,0,0,1-.47.14,1.48,1.48,0,0,1-.51-.1l-.63-.21c-.24-.08-.5-.15-.78-.22a4.59,4.59,0,0,0-.94-.1,3.22,3.22,0,0,0-1.19.25,5.21,5.21,0,0,0-1.23.75,9.1,9.1,0,0,0-1.33,1.36,21.91,21.91,0,0,0-1.49,2.09V44.54a.72.72,0,0,1-.17.49,1.26,1.26,0,0,1-.58.36,5.39,5.39,0,0,1-1.09.21,21.29,21.29,0,0,1-3.45,0,5.39,5.39,0,0,1-1.09-.21,1.26,1.26,0,0,1-.58-.36.72.72,0,0,1-.17-.49V19.28a.84.84,0,0,1,.14-.5,1,1,0,0,1,.51-.35,3.81,3.81,0,0,1,1-.22,14.09,14.09,0,0,1,1.46-.07c.6,0,1.1,0,1.5.07a3.35,3.35,0,0,1,.92.22,1,1,0,0,1,.46.35.84.84,0,0,1,.15.5v3.14a21.72,21.72,0,0,1,1.86-2.34,11,11,0,0,1,1.68-1.46,5.54,5.54,0,0,1,1.58-.75,6.2,6.2,0,0,1,1.59-.21c.24,0,.51,0,.79,0a7.37,7.37,0,0,1,.88.15,5.88,5.88,0,0,1,.79.22,1.86,1.86,0,0,1,.5.27.89.89,0,0,1,.22.31,2.53,2.53,0,0,1,.13.47,6.68,6.68,0,0,1,.09.89C230.13,20.41,230.14,21,230.14,21.63Z" style="fill:#7f7f7f"/><path d="M251.61,37.4a8.5,8.5,0,0,1-.81,3.8,7.36,7.36,0,0,1-2.28,2.74A10.22,10.22,0,0,1,245,45.6a16.32,16.32,0,0,1-4.36.55,16.83,16.83,0,0,1-2.71-.21,15.92,15.92,0,0,1-2.3-.54,13.23,13.23,0,0,1-1.7-.66,3.93,3.93,0,0,1-1-.64,2,2,0,0,1-.49-.94,7.93,7.93,0,0,1-.17-1.88,11.48,11.48,0,0,1,.06-1.32,3.8,3.8,0,0,1,.17-.79.81.81,0,0,1,.28-.4.94.94,0,0,1,.43-.1,2.1,2.1,0,0,1,.92.36c.41.24.91.49,1.51.78a16.23,16.23,0,0,0,2.11.79,9.27,9.27,0,0,0,2.74.37,6.8,6.8,0,0,0,1.71-.2,4.07,4.07,0,0,0,1.3-.57,2.34,2.34,0,0,0,.84-.93,2.86,2.86,0,0,0,.28-1.3,2.14,2.14,0,0,0-.52-1.46,4.52,4.52,0,0,0-1.39-1.06,14.82,14.82,0,0,0-1.95-.85c-.73-.27-1.48-.56-2.24-.88a19.42,19.42,0,0,1-2.24-1.11,8,8,0,0,1-2-1.53A6.84,6.84,0,0,1,233,28.9a8,8,0,0,1-.52-3,7.79,7.79,0,0,1,.7-3.33,7.34,7.34,0,0,1,2-2.59,9.51,9.51,0,0,1,3.25-1.67,14.25,14.25,0,0,1,4.29-.6,15.65,15.65,0,0,1,2.3.17,16,16,0,0,1,2,.43,9.85,9.85,0,0,1,1.53.55,5.48,5.48,0,0,1,.89.51,1.31,1.31,0,0,1,.38.42,1.46,1.46,0,0,1,.17.51c0,.2.07.45.1.74s0,.66,0,1.09,0,.92,0,1.25a3.13,3.13,0,0,1-.14.76.68.68,0,0,1-.27.38.71.71,0,0,1-.39.1,2,2,0,0,1-.8-.3,14.68,14.68,0,0,0-1.34-.63,15.57,15.57,0,0,0-1.87-.64,9,9,0,0,0-2.42-.3,6.26,6.26,0,0,0-1.67.2,3.12,3.12,0,0,0-1.17.57,2.45,2.45,0,0,0-.68.86,2.55,2.55,0,0,0-.22,1.06,2.13,2.13,0,0,0,.54,1.48,4.92,4.92,0,0,0,1.41,1,14.49,14.49,0,0,0,2,.85c.74.27,1.5.55,2.26.87a19.62,19.62,0,0,1,2.27,1.09,8.3,8.3,0,0,1,2,1.53,7.09,7.09,0,0,1,1.41,2.16A7.57,7.57,0,0,1,251.61,37.4Z" style="fill:#7f7f7f"/><path d="M278.49,44.62a.77.77,0,0,1-.29.63,2,2,0,0,1-.89.32,11.46,11.46,0,0,1-1.8.1,11.6,11.6,0,0,1-1.85-.1,1.62,1.62,0,0,1-.82-.32.84.84,0,0,1-.24-.63v-2A11.57,11.57,0,0,1,269,45.22a10.37,10.37,0,0,1-4.43.93,12.44,12.44,0,0,1-3.7-.52A8.31,8.31,0,0,1,258,44.07a7,7,0,0,1-1.91-2.56,8.62,8.62,0,0,1-.68-3.57,8.06,8.06,0,0,1,.86-3.84,7.06,7.06,0,0,1,2.58-2.69,12.75,12.75,0,0,1,4.26-1.57,30.44,30.44,0,0,1,5.92-.51h2.46V27.8a8,8,0,0,0-.24-2.08,3.44,3.44,0,0,0-.79-1.49,3.28,3.28,0,0,0-1.47-.88,8.25,8.25,0,0,0-2.28-.28,11.5,11.5,0,0,0-3.19.4,17.76,17.76,0,0,0-2.48.87c-.72.33-1.32.62-1.8.88a2.56,2.56,0,0,1-1.17.4.85.85,0,0,1-.55-.2,1.3,1.3,0,0,1-.4-.57,4.14,4.14,0,0,1-.24-.9,7.29,7.29,0,0,1-.09-1.19,5.1,5.1,0,0,1,.15-1.39,2.1,2.1,0,0,1,.53-.92,5.8,5.8,0,0,1,1.39-.91,17.52,17.52,0,0,1,2.32-.92,22.21,22.21,0,0,1,2.91-.69,19,19,0,0,1,3.24-.27,19.19,19.19,0,0,1,5.08.58A8.46,8.46,0,0,1,275.88,20a6.81,6.81,0,0,1,2,3.1,14.29,14.29,0,0,1,.63,4.5Zm-7-10.82h-2.72a14.51,14.51,0,0,0-2.94.26,5.57,5.57,0,0,0-2,.76,3.07,3.07,0,0,0-1.12,1.24,3.64,3.64,0,0,0-.36,1.65,3.17,3.17,0,0,0,1,2.49,4,4,0,0,0,2.79.91,5.21,5.21,0,0,0,2.76-.76,11.55,11.55,0,0,0,2.56-2.24Z" style="fill:#7f7f7f"/><path d="M309.72,44.54a.72.72,0,0,1-.17.49,1.29,1.29,0,0,1-.56.36,5.39,5.39,0,0,1-1.09.21,21.41,21.41,0,0,1-3.46,0,5.39,5.39,0,0,1-1.09-.21,1.29,1.29,0,0,1-.56-.36.72.72,0,0,1-.17-.49V30.12a12.18,12.18,0,0,0-.27-2.89,5.74,5.74,0,0,0-.78-1.79,3.54,3.54,0,0,0-1.32-1.17,4.16,4.16,0,0,0-1.88-.41,4.73,4.73,0,0,0-2.75,1,15.39,15.39,0,0,0-2.89,2.89v16.8a.72.72,0,0,1-.17.49,1.31,1.31,0,0,1-.58.36,5.54,5.54,0,0,1-1.09.21,16.46,16.46,0,0,1-1.73.07,16.25,16.25,0,0,1-1.72-.07,5.39,5.39,0,0,1-1.09-.21,1.26,1.26,0,0,1-.58-.36.72.72,0,0,1-.17-.49V19.28a.84.84,0,0,1,.14-.5,1,1,0,0,1,.51-.35,3.81,3.81,0,0,1,.95-.22,14,14,0,0,1,1.45-.07,14.8,14.8,0,0,1,1.5.07,3.34,3.34,0,0,1,.93.22,1,1,0,0,1,.46.35.84.84,0,0,1,.14.5v2.91a16.13,16.13,0,0,1,4.27-3.4,9.66,9.66,0,0,1,4.51-1.13,10,10,0,0,1,4.35.85,7.69,7.69,0,0,1,2.86,2.31,9.29,9.29,0,0,1,1.57,3.41,19.94,19.94,0,0,1,.48,4.7Z" style="fill:#7f7f7f"/><path d="M331.13,42A9.32,9.32,0,0,1,331,44a2.13,2.13,0,0,1-.41.93,2.21,2.21,0,0,1-.75.48,6.9,6.9,0,0,1-1.16.37,14.14,14.14,0,0,1-1.45.24,13.64,13.64,0,0,1-1.57.09,11.24,11.24,0,0,1-3.68-.54,6.1,6.1,0,0,1-2.58-1.66,6.81,6.81,0,0,1-1.5-2.82,14.86,14.86,0,0,1-.48-4V24.09h-3c-.36,0-.63-.22-.82-.67a6.1,6.1,0,0,1-.29-2.22,13.21,13.21,0,0,1,.07-1.39,3.29,3.29,0,0,1,.22-.89,1,1,0,0,1,.35-.47.92.92,0,0,1,.5-.14h3V12.68a.9.9,0,0,1,.15-.51,1.29,1.29,0,0,1,.57-.39,4.8,4.8,0,0,1,1.11-.22,16.42,16.42,0,0,1,1.71-.07,16.79,16.79,0,0,1,1.74.07,4.6,4.6,0,0,1,1.09.22,1.36,1.36,0,0,1,.57.39.85.85,0,0,1,.17.51v5.63H330a.92.92,0,0,1,.5.14,1,1,0,0,1,.35.47,3,3,0,0,1,.21.89,11,11,0,0,1,.07,1.39,6.15,6.15,0,0,1-.28,2.22c-.19.45-.46.67-.82.67h-5.52V36a5.87,5.87,0,0,0,.65,3.1,2.52,2.52,0,0,0,2.32,1,4.52,4.52,0,0,0,1-.1,6.7,6.7,0,0,0,.81-.22l.59-.23a1.11,1.11,0,0,1,.44-.1.6.6,0,0,1,.33.1.69.69,0,0,1,.24.4,5.79,5.79,0,0,1,.15.8A9.39,9.39,0,0,1,331.13,42Z" style="fill:#7f7f7f"/><circle cx="345.5" cy="37.5" r="7.5" style="fill:#00b0f0"/><path d="M374,37.76a10.58,10.58,0,0,1-.45,3.16,7.14,7.14,0,0,1-1.36,2.49A6.1,6.1,0,0,1,369.91,45a7.63,7.63,0,0,1-3.13.59,8,8,0,0,1-3-.52,5.43,5.43,0,0,1-2.15-1.5,6.31,6.31,0,0,1-1.28-2.39,11.08,11.08,0,0,1-.42-3.18,10.66,10.66,0,0,1,.44-3.17,7,7,0,0,1,1.35-2.49,5.86,5.86,0,0,1,2.24-1.62,7.79,7.79,0,0,1,3.14-.58,8.2,8.2,0,0,1,3,.51,5.64,5.64,0,0,1,2.15,1.5,6.63,6.63,0,0,1,1.29,2.39A10.78,10.78,0,0,1,374,37.76Zm-2.67.17a10,10,0,0,0-.22-2.16,5.14,5.14,0,0,0-.7-1.78,3.43,3.43,0,0,0-1.32-1.21,4.35,4.35,0,0,0-2.08-.45,4.45,4.45,0,0,0-2,.41,3.63,3.63,0,0,0-1.37,1.15,5.16,5.16,0,0,0-.79,1.76,9,9,0,0,0-.26,2.21,10.75,10.75,0,0,0,.21,2.18,5.1,5.1,0,0,0,.71,1.77,3.5,3.5,0,0,0,1.33,1.2,4.35,4.35,0,0,0,2.08.45,4.44,4.44,0,0,0,2-.41,3.65,3.65,0,0,0,1.38-1.14,4.92,4.92,0,0,0,.78-1.75A9.16,9.16,0,0,0,371.3,37.93Z" style="fill:#00b0f0"/><path d="M386,31.8c0,.23,0,.42,0,.58a1.49,1.49,0,0,1-.06.37.48.48,0,0,1-.12.2.26.26,0,0,1-.2.07.79.79,0,0,1-.3-.07l-.41-.14a5.16,5.16,0,0,0-.5-.13,3,3,0,0,0-.61-.07,2,2,0,0,0-.77.16,3.24,3.24,0,0,0-.79.52,6.41,6.41,0,0,0-.87,1c-.3.4-.63.88-1,1.45v9.25a.33.33,0,0,1-.06.21.46.46,0,0,1-.2.15,1.57,1.57,0,0,1-.39.1,5.6,5.6,0,0,1-.64,0,5.53,5.53,0,0,1-.63,0,1.54,1.54,0,0,1-.4-.1.41.41,0,0,1-.2-.15.33.33,0,0,1-.05-.21V30.88a.46.46,0,0,1,0-.21.45.45,0,0,1,.19-.16,1.34,1.34,0,0,1,.36-.09,8.28,8.28,0,0,1,1.15,0,1.17,1.17,0,0,1,.35.09.57.57,0,0,1,.18.16.36.36,0,0,1,0,.21v2.05a11.28,11.28,0,0,1,1.09-1.38,6.13,6.13,0,0,1,1-.83,2.84,2.84,0,0,1,.9-.43,4,4,0,0,1,.9-.11l.46,0,.54.09c.19,0,.35.09.51.14a1.2,1.2,0,0,1,.32.15.64.64,0,0,1,.12.15,1.89,1.89,0,0,1,.06.18c0,.07,0,.18,0,.32Z" style="fill:#00b0f0"/><path d="M400.23,31.52a1.68,1.68,0,0,1-.14.79.45.45,0,0,1-.39.24h-2a3.19,3.19,0,0,1,.76,1.24,4.53,4.53,0,0,1,.22,1.42,5.53,5.53,0,0,1-.39,2.15A4.21,4.21,0,0,1,397.16,39a5,5,0,0,1-1.72,1,6.8,6.8,0,0,1-2.22.35,5.78,5.78,0,0,1-1.63-.23,3.36,3.36,0,0,1-1.2-.57,2.42,2.42,0,0,0-.46.64,1.84,1.84,0,0,0-.18.83,1.06,1.06,0,0,0,.51.9,2.54,2.54,0,0,0,1.35.4l3.67.15a7.58,7.58,0,0,1,1.92.29,4.68,4.68,0,0,1,1.52.74,3.23,3.23,0,0,1,1,1.17,3.44,3.44,0,0,1,.36,1.61,4.38,4.38,0,0,1-.41,1.85,4.29,4.29,0,0,1-1.24,1.54,6.23,6.23,0,0,1-2.13,1,10.76,10.76,0,0,1-3.07.39,12.57,12.57,0,0,1-2.89-.29,6.5,6.5,0,0,1-2-.79,2.88,2.88,0,0,1-1.11-1.2,3.31,3.31,0,0,1-.35-1.5,3.66,3.66,0,0,1,.13-1,3.57,3.57,0,0,1,.38-.93,4.1,4.1,0,0,1,.64-.83,8.6,8.6,0,0,1,.88-.79,2.7,2.7,0,0,1-1.13-1,2.41,2.41,0,0,1-.37-1.28,3.64,3.64,0,0,1,.39-1.7,5.67,5.67,0,0,1,1-1.34,4.5,4.5,0,0,1-.76-1.31,4.81,4.81,0,0,1-.28-1.76,5.42,5.42,0,0,1,.4-2.15,4.55,4.55,0,0,1,1.13-1.61,4.83,4.83,0,0,1,1.72-1,6.81,6.81,0,0,1,2.2-.35,8.86,8.86,0,0,1,1.19.07,9.68,9.68,0,0,1,1,.19h4.25a.43.43,0,0,1,.4.26A1.79,1.79,0,0,1,400.23,31.52ZM397.5,46.36a1.57,1.57,0,0,0-.74-1.39,3.77,3.77,0,0,0-2-.53l-3.64-.12a7,7,0,0,0-.82.74,4.58,4.58,0,0,0-.51.67,2.72,2.72,0,0,0-.26.63,3.5,3.5,0,0,0-.07.65,1.65,1.65,0,0,0,1,1.53,6.46,6.46,0,0,0,2.88.53,7.27,7.27,0,0,0,2-.23,3.66,3.66,0,0,0,1.27-.6,2.17,2.17,0,0,0,.7-.86A2.52,2.52,0,0,0,397.5,46.36Zm-1.3-11.14a3.06,3.06,0,0,0-.79-2.24,3,3,0,0,0-2.24-.8,3.08,3.08,0,0,0-1.3.25,2.43,2.43,0,0,0-.92.68,2.92,2.92,0,0,0-.55,1,4,4,0,0,0-.18,1.2,2.74,2.74,0,0,0,3,3,3.4,3.4,0,0,0,1.33-.24,2.64,2.64,0,0,0,.93-.67,3,3,0,0,0,.54-1A3.88,3.88,0,0,0,396.2,35.22Z" style="fill:#00b0f0"/></svg>