<svg id="84d8fbec-1cd5-4fd9-94df-52d6092114c1" data-name="Calque 1" xmlns="http://www.w3.org/2000/svg" viewBox="0 0 234 51"><title>ressources-logo</title><path d="M101.12,5,99.87,3.15a19.14,19.14,0,0,1-5.6,3,20.38,20.38,0,0,1-6.57,1,20.37,20.37,0,0,1-6.56-1,18.79,18.79,0,0,1-4.88-2.55s-.46-.39-.52-.34-.52.34-.52.34a19,19,0,0,1-4.88,2.55,20.38,20.38,0,0,1-6.57,1,20.37,20.37,0,0,1-6.56-1,18.79,18.79,0,0,1-4.88-2.55s-.46-.39-.52-.34-.52.34-.52.34a19,19,0,0,1-4.88,2.55,20.38,20.38,0,0,1-6.57,1,20.37,20.37,0,0,1-6.56-1,19,19,0,0,1-4.89-2.55s-.45-.39-.51-.34-.52.34-.52.34a19,19,0,0,1-4.88,2.55,20.38,20.38,0,0,1-6.57,1,20.47,20.47,0,0,1-6.57-1,19.09,19.09,0,0,1-5.59-3L2.5,5A21.94,21.94,0,0,0,8.55,8.46a20.54,20.54,0,0,0,7.36,1.31,20.46,20.46,0,0,0,7.36-1.31A22.81,22.81,0,0,0,27.88,6a22.55,22.55,0,0,0,4.61,2.48,20.44,20.44,0,0,0,7.35,1.31A20.46,20.46,0,0,0,47.2,8.46,22.81,22.81,0,0,0,51.81,6a22.55,22.55,0,0,0,4.61,2.48,20.44,20.44,0,0,0,7.35,1.31,20.46,20.46,0,0,0,7.36-1.31A22.81,22.81,0,0,0,75.74,6a22.81,22.81,0,0,0,4.61,2.48A20.44,20.44,0,0,0,87.7,9.77a20.46,20.46,0,0,0,7.36-1.31A22,22,0,0,0,101.12,5" style="fill:#5c5c5b"/><path d="M10,22.73q5.43,0,8.3,2a6.87,6.87,0,0,1,2.88,6.07c0,3.4-1.68,5.71-5,6.91.46.56,1,1.23,1.56,2s1.17,1.66,1.77,2.59,1.18,1.88,1.74,2.85,1.05,1.94,1.48,2.88h-5.1c-.46-.87-.95-1.74-1.48-2.62S15,43.69,14.5,42.86s-1.08-1.62-1.61-2.35-1-1.4-1.49-2l-.86,0H7.64v9.48H3.08V23.34a25.33,25.33,0,0,1,3.55-.49Q8.5,22.73,10,22.73Zm.33,3.94c-1,0-1.86,0-2.68.11v8.1h2a21,21,0,0,0,2.93-.18,6.3,6.3,0,0,0,2.12-.65A3.19,3.19,0,0,0,16,32.78a4.17,4.17,0,0,0,.44-2,4.08,4.08,0,0,0-.44-2,3.16,3.16,0,0,0-1.25-1.26,5.85,5.85,0,0,0-1.93-.67A14.41,14.41,0,0,0,10.32,26.67Z" style="fill:#00ace9"/><path d="M26.6,48.05V23H42.69v3.87H31.15V33H41.43v3.79H31.15v7.35H43.56v3.87Z" style="fill:#00ace9"/><path d="M54.23,44.65a6.09,6.09,0,0,0,3.58-.83,2.76,2.76,0,0,0,1.12-2.35,3,3,0,0,0-.38-1.56,4,4,0,0,0-1.08-1.18,8.86,8.86,0,0,0-1.72-1c-.67-.3-1.45-.6-2.31-.89s-1.71-.66-2.52-1a8.34,8.34,0,0,1-2.13-1.39,6.35,6.35,0,0,1-1.48-2,6.25,6.25,0,0,1-.57-2.79,6.53,6.53,0,0,1,2.36-5.33,9.76,9.76,0,0,1,6.4-1.94,15.16,15.16,0,0,1,4.18.53,12.92,12.92,0,0,1,2.87,1.14l-1.41,3.69a10.76,10.76,0,0,0-2.69-1.05,12.68,12.68,0,0,0-3-.37,4.83,4.83,0,0,0-2.88.76,2.5,2.5,0,0,0-1,2.14,2.83,2.83,0,0,0,.34,1.43,3.65,3.65,0,0,0,1,1.07,8.61,8.61,0,0,0,1.48.86,19.62,19.62,0,0,0,1.87.76c1.18.44,2.23.88,3.16,1.32a9.14,9.14,0,0,1,2.35,1.59,6.27,6.27,0,0,1,1.47,2.18,8.15,8.15,0,0,1,.5,3,6.28,6.28,0,0,1-2.4,5.26c-1.61,1.24-4,1.86-7,1.86a19,19,0,0,1-2.84-.2,17,17,0,0,1-2.28-.49,15.94,15.94,0,0,1-1.71-.59,10.73,10.73,0,0,1-1.16-.56L47.58,43a16.18,16.18,0,0,0,2.64,1.09A13.05,13.05,0,0,0,54.23,44.65Z" style="fill:#00ace9"/><path d="M74.13,44.65a6.11,6.11,0,0,0,3.58-.83,2.76,2.76,0,0,0,1.12-2.35,3.05,3.05,0,0,0-.38-1.56,4,4,0,0,0-1.09-1.18,9.06,9.06,0,0,0-1.71-1c-.68-.3-1.45-.6-2.32-.89s-1.71-.66-2.51-1a8.58,8.58,0,0,1-2.14-1.39,6.51,6.51,0,0,1-1.48-2,6.4,6.4,0,0,1-.56-2.79A6.52,6.52,0,0,1,69,24.34a9.78,9.78,0,0,1,6.4-1.94,15.16,15.16,0,0,1,4.18.53,12.82,12.82,0,0,1,2.88,1.14L81,27.76a10.68,10.68,0,0,0-2.7-1.05,12.61,12.61,0,0,0-3-.37,4.83,4.83,0,0,0-2.88.76,2.53,2.53,0,0,0-1,2.14,2.83,2.83,0,0,0,.35,1.43,3.61,3.61,0,0,0,1,1.07,8.71,8.71,0,0,0,1.49.86,18.38,18.38,0,0,0,1.86.76c1.18.44,2.24.88,3.17,1.32a9.31,9.31,0,0,1,2.35,1.59,6.38,6.38,0,0,1,1.46,2.18,7.94,7.94,0,0,1,.51,3,6.26,6.26,0,0,1-2.41,5.26c-1.6,1.24-4,1.86-7,1.86a18.88,18.88,0,0,1-2.84-.2A16.38,16.38,0,0,1,69,47.9a15.43,15.43,0,0,1-1.72-.59,11.74,11.74,0,0,1-1.16-.56L67.47,43a16.18,16.18,0,0,0,2.64,1.09A13.12,13.12,0,0,0,74.13,44.65Z" style="fill:#00ace9"/><path d="M111.24,35.5a15.58,15.58,0,0,1-1,5.68,11.85,11.85,0,0,1-2.6,4.1,10.71,10.71,0,0,1-3.86,2.48,13.28,13.28,0,0,1-4.7.83,13.47,13.47,0,0,1-4.72-.83,10.67,10.67,0,0,1-3.87-2.48,11.89,11.89,0,0,1-2.62-4.1,15.36,15.36,0,0,1-1-5.68,15.14,15.14,0,0,1,1-5.66,11.92,11.92,0,0,1,2.66-4.11,11,11,0,0,1,3.89-2.5,13.52,13.52,0,0,1,9.33,0,10.72,10.72,0,0,1,3.85,2.5,12.13,12.13,0,0,1,2.62,4.11A15.14,15.14,0,0,1,111.24,35.5Zm-19.57,0a12.86,12.86,0,0,0,.51,3.74,8,8,0,0,0,1.46,2.86A6.67,6.67,0,0,0,96,43.92a7.14,7.14,0,0,0,3.12.66,7,7,0,0,0,3.07-.66,6.59,6.59,0,0,0,2.33-1.82A8.23,8.23,0,0,0,106,39.24a12.87,12.87,0,0,0,.5-3.74,12.89,12.89,0,0,0-.5-3.75,8.18,8.18,0,0,0-1.47-2.85,6.5,6.5,0,0,0-2.33-1.83,7,7,0,0,0-3.07-.65,7.14,7.14,0,0,0-3.12.65,6.62,6.62,0,0,0-2.33,1.84,8.31,8.31,0,0,0-1.46,2.86A12.7,12.7,0,0,0,91.67,35.5Z" style="fill:#00ace9"/><path d="M126.25,48.59a11.9,11.9,0,0,1-4.41-.74,8.15,8.15,0,0,1-3.06-2.08A8.46,8.46,0,0,1,117,42.62a12.84,12.84,0,0,1-.58-4V23H121V38.21a9.6,9.6,0,0,0,.38,2.91,5,5,0,0,0,1.08,2,4.29,4.29,0,0,0,1.67,1.12,5.81,5.81,0,0,0,2.15.37,6,6,0,0,0,2.17-.37,4.25,4.25,0,0,0,1.68-1.12,5.11,5.11,0,0,0,1.09-2,10,10,0,0,0,.37-2.91V23h4.6V38.64a12.54,12.54,0,0,1-.6,4,8.64,8.64,0,0,1-1.81,3.15,8.11,8.11,0,0,1-3.09,2.08A12.2,12.2,0,0,1,126.25,48.59Z" style="fill:#00ace9"/><path d="M149.29,22.73q5.43,0,8.3,2a6.87,6.87,0,0,1,2.88,6.07c0,3.4-1.68,5.71-5,6.91.46.56,1,1.23,1.56,2s1.17,1.66,1.77,2.59,1.18,1.88,1.74,2.85,1.05,1.94,1.48,2.88h-5.1c-.46-.87-.95-1.74-1.48-2.62s-1.07-1.74-1.61-2.57-1.08-1.62-1.61-2.35-1-1.4-1.49-2l-.86,0h-2.9v9.48h-4.56V23.34a25.33,25.33,0,0,1,3.55-.49Q147.81,22.73,149.29,22.73Zm.33,3.94c-1,0-1.86,0-2.68.11v8.1h2a21,21,0,0,0,2.93-.18,6.3,6.3,0,0,0,2.12-.65,3.19,3.19,0,0,0,1.28-1.27,4.17,4.17,0,0,0,.44-2,4.08,4.08,0,0,0-.44-2A3.16,3.16,0,0,0,154,27.54a5.85,5.85,0,0,0-1.93-.67A14.41,14.41,0,0,0,149.62,26.67Z" style="fill:#00ace9"/><path d="M177,48.59a14,14,0,0,1-5.07-.87,10.11,10.11,0,0,1-3.8-2.55,11.45,11.45,0,0,1-2.38-4.1A17,17,0,0,1,165,35.5a15,15,0,0,1,.95-5.57,12,12,0,0,1,2.63-4.11,11.09,11.09,0,0,1,3.9-2.55,13.21,13.21,0,0,1,4.81-.87,15.32,15.32,0,0,1,2.83.24,19.46,19.46,0,0,1,2.2.52,9.35,9.35,0,0,1,1.56.62c.41.21.7.37.87.47L183.37,28a11,11,0,0,0-2.48-1,12.16,12.16,0,0,0-3.49-.49,8.22,8.22,0,0,0-3,.56,6.66,6.66,0,0,0-2.44,1.69,7.59,7.59,0,0,0-1.61,2.82,12.11,12.11,0,0,0-.58,3.94,13.93,13.93,0,0,0,.45,3.65,8.06,8.06,0,0,0,1.4,2.88A6.31,6.31,0,0,0,174,43.87a8.18,8.18,0,0,0,3.48.67,13.06,13.06,0,0,0,3.94-.49,15.37,15.37,0,0,0,2.35-.92L185,46.86a6.21,6.21,0,0,1-1.18.57A15.17,15.17,0,0,1,182,48a16.5,16.5,0,0,1-2.28.44A21,21,0,0,1,177,48.59Z" style="fill:#00ace9"/><path d="M189.34,48.05V23h16.09v3.87H193.89V33h10.28v3.79H193.89v7.35H206.3v3.87Z" style="fill:#00ace9"/><path d="M217,44.65a6.11,6.11,0,0,0,3.58-.83,2.76,2.76,0,0,0,1.12-2.35,3,3,0,0,0-.38-1.56,4,4,0,0,0-1.08-1.18,8.86,8.86,0,0,0-1.72-1c-.67-.3-1.45-.6-2.31-.89s-1.71-.66-2.52-1a8.34,8.34,0,0,1-2.13-1.39,6.54,6.54,0,0,1-1.49-2,6.4,6.4,0,0,1-.56-2.79,6.55,6.55,0,0,1,2.35-5.33,9.81,9.81,0,0,1,6.41-1.94,15.21,15.21,0,0,1,4.18.53,12.92,12.92,0,0,1,2.87,1.14l-1.41,3.69a10.76,10.76,0,0,0-2.69-1.05,12.68,12.68,0,0,0-3-.37,4.83,4.83,0,0,0-2.88.76,2.5,2.5,0,0,0-1,2.14,2.83,2.83,0,0,0,.34,1.43,3.65,3.65,0,0,0,1,1.07,8.61,8.61,0,0,0,1.48.86c.57.27,1.19.52,1.86.76,1.19.44,2.24.88,3.17,1.32a9.14,9.14,0,0,1,2.35,1.59,6.27,6.27,0,0,1,1.47,2.18,8.15,8.15,0,0,1,.5,3,6.28,6.28,0,0,1-2.4,5.26c-1.61,1.24-3.95,1.86-7,1.86a19,19,0,0,1-2.84-.2,17.49,17.49,0,0,1-4-1.08,11.42,11.42,0,0,1-1.15-.56L210.32,43A16.18,16.18,0,0,0,213,44.11,13.05,13.05,0,0,0,217,44.65Z" style="fill:#00ace9"/></svg>